<?xml version="1.0" encoding="UTF-8"?>
<svg id="Layer_1" data-name="Layer 1" xmlns="http://www.w3.org/2000/svg" viewBox="0 0 883.86 751">
  <defs>
    <style>
      .cls-1 {
        fill: none;
      }

      .cls-1, .cls-2 {
        stroke-width: 0px;
      }

      .cls-2 {
        fill: #fff;
      }
    </style>
  </defs>
  <path class="cls-2" d="m0,456.17c0-2.12,0-4.24,0-6.36,2.06-1.3,4-3.33,6.22-3.7,2.12-.35,4.53,1.01,6.81,1.62-.13-.62-.26-1.39-.44-2.15-9.78-41.06-11.56-82.49-5.3-124.2,6.77-45.1,22.43-87.02,46.71-125.59,41.32-65.64,98.37-113.22,169.22-143.98,67.22-29.18,137.58-38.22,210.24-28.99,57.16,7.26,110.33,25.92,159.05,56.83,46.4,29.44,85.05,66.76,114.64,113.25,1.69,2.65,1.86,4.78.72,7.64-1.84,4.64-3.68,9.39-4.63,14.26-3.3,16.99-4.29,34.15-2.04,51.35,3.05,23.37,9.52,45.55,23.78,64.84,4.07,5.5,7.23,11.36,7.67,18.4.31,5.09.82,10.17,1.22,15.06h9.98c0-3.65.24-6.97-.04-10.24-.89-10.38-3.24-20.05-9.75-28.82-12.17-16.4-18.88-35.25-20.62-55.52-4.34-50.73,11.73-93.19,52.9-124.5,27.4-20.84,59.33-31.02,92.9-36.57,7.79-1.29,15.67-2.05,23.49-3.05V.94c-2.05,0-3.88,0-5.71,0-289.42,0-578.84,0-868.26,0C5.82.94,2.91.85,0,.8.13.54.25.05.4.04,1.46-.02,2.52,0,3.58,0h880.28c0,249.14,0,498.28-.03,747.42,0,1.19-.5,2.38-.76,3.58-.05-1.72-.13-3.44-.13-5.16,0-206.21,0-412.41,0-618.62v-3.42c-.89.65-1.29,1.42-1.63,2.22-5.97,13.93-9.61,28.55-8.93,43.62.68,15.15,2.69,30.29,4.91,45.31,2.84,19.29,5.83,38.46,2.73,58.03-7.16,45.1-48.47,83.23-99.72,76.05-2.73-.38-3.94-1.24-3.88-4.16.16-8.34.24-16.69,0-25.02-.1-3.7,1.15-5.19,4.8-6.15,21.82-5.74,40.97-16.3,56.91-32.42,1.31-1.33,2.53-2.75,3.79-4.13-19.09,14.3-39.82,24.36-63.63,28.34-.09-1.2-.23-1.73-.15-2.22,2.11-11.98,4.17-23.97,6.49-35.91.22-1.11,1.96-2.42,3.23-2.74,14.56-3.72,27.85-10.18,40.03-18.8,5.97-4.23,11.24-9.45,16.82-14.23-.22-.28-.43-.55-.65-.83-16.75,12.87-35.2,21.87-57.29,25.8,3.97-11.67,7.63-22.27,11.16-32.91.84-2.51,2.37-3.75,4.87-4.57,13.15-4.32,25.68-9.92,36.52-18.75,1.13-.92,2.22-1.89,3.25-2.91.93-.92,1.77-1.94,2.65-2.92-12.69,8.62-26.74,13.26-41.61,16.64,5.29-11.16,10.98-21.89,16.9-32.5.62-1.11,2.54-1.74,3.98-2.1,9.1-2.22,17.63-5.64,25.24-11.18,1.37-1,2.63-2.16,3.94-3.24-9,4.33-17.94,7.88-27.7,8.87-.28-.34-.56-.68-.85-1.01,8.95-11.48,17.89-22.96,26.84-34.44-.18-.17-.36-.35-.54-.52-10.1,10.49-20.19,20.98-30.56,31.76-1.25-10.36-.38-20.22,2.71-29.95-.91,1.19-1.6,2.43-2.18,3.73-4.32,9.72-6.25,19.88-5.82,30.53.06,1.59-.31,3.46-1.14,4.77-3.91,6.14-8.09,12.1-12.1,18.17-2.3,3.49-4.47,7.06-7.08,11.2-4.59-14.72-5.58-28.99-3.95-43.58-.82,1.7-1.43,3.42-1.86,5.19-3.47,14.33-2.64,28.6.32,42.91.5,2.4.34,5.28-.52,7.56-3.49,9.27-7.37,18.4-11.11,27.58-.5,1.23-.97,2.48-1.7,4.36-8.94-17.95-13.96-36-14.61-55.22-2.84,16.32-.64,32.2,3.95,47.84,2.09,7.14,6.24,14.1,6.49,21.24.25,7.25-3.21,14.61-4.93,21.95-.93,3.93-1.63,7.92-2.62,12.81-13.7-17.44-22.79-35.98-27.54-57.35-.31,1.04-.5,1.37-.48,1.7.09,1.85.12,3.71.36,5.55,2.82,21.7,11.04,41.31,23.35,59.25,1.66,2.42,2.02,4.56,1.55,7.35-2.8,16.56-6.11,33.11-2.08,50.51,1.12,0,2.78.21,4.36-.04,6.41-.97,9.16,1.05,9.68,7.54.2,2.5.1,5.03.04,7.54-1.2,44.03-10.2,86.43-27.97,126.73-35.85,81.31-94.54,141.58-172.89,182.24-91,47.23-187.22,58.07-287.01,35.39-77.27-17.57-143.78-54.83-198.55-112.37-32.59-34.24-57.96-73.2-74.84-117.45-4.79-12.56-8.5-25.54-12.71-38.32Zm136.55,156.32c135.47,118.99,347.46,116.69,478.38,9.29-.57-.99-1.09-2.04-1.75-3-18.19-26.81-43.64-41.32-75.88-41.45-109.4-.44-218.8-.15-328.2-.15-10.98,0-21.59,2.08-31.9,5.69-16.42,5.76-29.87,15.66-40.66,29.63Zm213.76-349.16c2.25-2.82,4.25-5.39,6.31-7.9,11.02-13.43,20.24-27.84,24.33-44.99,2.6-10.89,3.78-21.73-2.85-31.81-11.06-16.82-38.07-27.47-57.52-22.13-15.27,4.19-28.26,13.04-37.54,25.41-14.1,18.8-26.69,38.75-39.56,58.46-6.52,9.98-11.73,20.7-14.7,32.39-4.05,15.95.75,29.31,13.72,39.29,18.64,14.36,51.43,14.8,68.17-5.52,1.26-1.53,2.74-2.87,4.19-4.23.57-.53,1.3-.89,2.6-1.74-4.46,12.92-4.2,25.57-4.42,38.08-.08,5.01,1.03,10.35,2.88,15.03,6.72,16.98,20.12,26.93,36.94,32.35,24.64,7.94,49.81,9.52,75.27,4.56,19.59-3.81,37.82-10.9,53.94-22.96,7.1-5.31,10.4-12.33,10.78-21.09.51-11.63,1.23-23.26,2.08-34.87.89-12.19-.61-23.72-7.68-34.13-6.69-9.86-16.17-15.95-27.04-19.92-28.05-10.25-56.6-9.77-85.19-2.73-8.24,2.03-16.13,5.48-24.71,8.46Zm-140.96,308.79c-2.97-2.31-5.13-4-7.3-5.68-22.77-17.54-42.56-38.05-57.95-62.24-42.68-67.05-53.13-138.66-26.62-214.17,22.27-63.43,64.95-110.13,123.5-142.1,63.12-34.46,130.54-43.93,200.8-29.29,71.47,14.9,129.97,51.19,172.16,111.31,43.38,61.81,56.35,129.98,36.84,203.21-15.14,56.83-48.17,101.9-95.01,137.09-1.22.91-2.42,1.85-3.99,3.05,4.13.96,7.56,2.01,11.07,2.46,1.72.22,4.08-.09,5.31-1.14,9.42-8.11,19.24-15.89,27.82-24.84,55.13-57.48,80.69-125.74,73.23-205.5-3.42-36.51-14.96-70.56-33.68-102.09-31.46-52.99-76.01-91.23-132.29-115.75-55.65-24.24-113.75-30.82-173.42-20.61-76.89,13.15-140.2,49.93-186.97,112.84-41.1,55.28-57.74,117.7-48.21,186.12,9.55,68.64,43.39,123.81,96.71,167.44.92.75,2.36,1.32,3.52,1.25,4.48-.26,8.94-.81,14.49-1.36Zm417.41,47.77c-13.49,9.61-26.04,19.4-39.4,27.92-54.31,34.64-113.81,53.73-178.05,58.14-65.56,4.5-128.46-6.16-188.39-33.36-30.79-13.97-59.2-31.77-84.91-53.81-1.07-.92-3.18-2.13-3.89-1.7-5.45,3.31-10.97,2.67-16.72.94,35.63,33.71,76.59,58.67,122.26,76.04,45.63,17.36,92.85,26.02,141.68,26.27,48.96.26,96.37-8.01,142.32-24.92,41.85-15.4,113.1-58.65,122.84-75.21-6.64,3.83-12.74,4.64-17.75-.31Zm-320.72-87.86c0-1.73,0-3.04,0-4.35,0-20.52.02-41.04,0-61.57-.03-29.77-21.97-55.21-51.42-59.65-1.61-.24-3.22-.44-4.83-.66-.33-.5-.66-1-1-1.5,3.27-2.8,6.52-5.62,9.81-8.4,5.25-4.45,10.59-8.8,15.72-13.4,1.06-.95,1.41-2.75,1.98-4.2.5-1.26.47-2.98,1.33-3.8,3.81-3.63,7.85-7.01,12.12-10.75-2.4-3.02-4.56-5.74-6.4-8.06-5.66,3.43-10.75,6.53-15.86,9.59-.1.06-.42-.23-1.49-.87,5.12-3.95,9.98-7.7,14.77-11.4-1.41-2.86-2.97-2.6-4.96-1.2-4.51,3.18-9.13,6.22-13.74,9.34-1.21-.95-2.33-1.84-3.57-2.82-2.12,1.27-4.2,2.41-6.17,3.72-12.9,8.57-25.64,17.38-38.71,25.68-7.7,4.89-12.13,11.11-11.88,20.45.1,3.82-.42,7.66-.54,11.49-.04,1.15.18,2.38.56,3.47,2.15,6.1,4.91,12.05,6.43,18.3,1.19,4.89,3.32,7.41,8.37,7.27.17,0,.35.35.71.73,0,.7,0,1.62,0,2.53-.04,3.09.78,5.44,4.39,5.94,6.51.89,11.46-.4,12.44-3.54.34-1.1.24-2.35.27-3.54.04-1.9.01-3.8.01-5.69,1.55.99,2.41,2.11,3.14,3.31.76,1.24,1.32,2.6,2.11,3.81,1.91,2.93,5.82,3.88,8.73,2.18,3.17-1.85,3.68-4.38,1.76-8.15-.62-1.22-1.02-2.55-1.64-4.1,1.46-.09,2.47.09,3.26-.24,1.37-.58,3.43-1.29,3.68-2.3.31-1.29-.71-3.07-1.52-4.41-.66-1.09-1.8-1.94-2.85-2.74-2.07-1.57-2.04-3.58-.5-5.1.94-.93,3.18-1.6,4.26-1.11,2.59,1.17,5.28,2.69,7.14,4.77,6.16,6.88,7.26,15.38,6.46,24.18-.1,1.15-1.72,2.8-2.92,3.1-4.35,1.09-5.75,3.72-5.19,7.89.12.87-.12,1.78-.23,3.05h-59.3v7.69h59.83c0,6.63.1,12.82-.13,19.01-.03.8-1.77,2.13-2.79,2.19-3.96.24-7.97-.23-11.9.12-4.06.36-5.28-.99-5.14-5.04.27-7.89-3.16-11.05-11.09-10.98-2.78.02-5.58.21-8.34-.02-3.67-.31-6.96.17-8.62,3.83-.97,2.15-1.67,4.58-1.79,6.93-.14,2.79-.58,4.64-3.33,6.35-4,2.48-7.72,5.66-10.92,9.13-3.56,3.84-7.02,8.04-9.32,12.68-1.3,2.62-.62,6.56.16,9.66.22.86,3.99,1.13,6.13,1.14,36.15.15,72.3.21,108.45.28,1.17,0,2.34-.1,4.1-.19Zm223.98,4.46v-.05c12.98,0,25.96.13,38.93-.04,8.92-.12,14.25-7.09,12.48-15.86-.21-1.04-.44-2.07-.71-3.09-7.72-29.42-15.52-58.82-23.14-88.27-2.18-8.43-4.6-16.91-5.55-25.51-.93-8.5-.21-17.19-.04-25.79.03-1.75.49-3.7,1.37-5.18,1.66-2.8,1.84-5.48.39-8.28-1.51-2.92-4.07-3.84-7.27-3.8-8.08.12-16.16-.08-24.23.16-3.15.09-4.46-1.01-5.06-4.02-.8-4.01-2-7.95-3.17-11.88-.66-2.22-1.15-5.18-4.44-4.45-3.25.72-3.16,3.34-2.51,6.05.9,3.73,1.57,7.51,2.49,11.23.48,1.96.41,3.23-1.53,4.62-3.25,2.32-3.74,6.35-2.29,9.57,1.04,2.3,1.91,4.87,2.01,7.36.29,7.27.3,14.56.12,21.84-.09,3.66-.44,7.41-1.35,10.94-9.16,35.33-18.22,70.69-27.87,105.89-3.06,11.18,4.9,19.09,14.42,18.7,12.3-.5,24.63-.12,36.94-.12ZM337.82,79.76c2.78-1.54,4.38-.34,5.56,1.68,1.46,2.5,3.49,3.32,6.31,2.78,1.81-.35,3.68-.48,5.53-.51,2.07-.04,3.32-.65,4.03-2.87.77-2.42,9.7-3.47,10.71-1.18,1.64,3.73,4.3,3.09,7.66,2.71-3.16-6.22-6.22-12.2-9.24-18.19-1.05-2.08-2.04-3.68-5.03-3.38-2.85.28-3.31,2.02-4.04,4.03-2.16,6.02-4.39,12.01-6.86,18.73-2.16-2.52-3.74-4.36-5.25-6.13,4.93-6.41,3.12-13.72-3.52-14.29-4.48-.39-9.07.44-13.88.74,1,7.79,1.9,14.81,2.82,22.03,2.03-.18,3.68-.33,5.52-.49-.12-2.12-.22-3.8-.33-5.64Zm67.81,97.79v8.17c3.94,0,7.62.15,11.27-.05,2.55-.14,3.67.61,3.51,3.27-.15,2.58-.03,5.17-.03,7.56h9.55v-11.46c4.91-.34,9.48-.65,14.06-.97v-8.4h-14.95v-10.92h-9.16v11.85c-4.89.32-9.47.63-14.25.94Zm-121.69-80.91c-5.26-5.55-10.24-11.01-15.53-16.16-.83-.81-3.18-.61-4.57-.12-1.02.35-2.16,1.87-2.29,2.97-.67,5.9-1.03,11.83-1.46,17.23-3.94,1.42-7.51,2.71-11.39,4.11-2.44-5.4-4.74-10.51-7.14-15.82-1.88.9-3.37,1.61-5.17,2.46,3.12,6.91,6.07,13.45,9.11,20.19,5.96-2.46,11.51-4.87,17.16-7.03,1.97-.76,2.9-1.69,3.11-3.9.28-2.9,8.24-6.19,10.14-4.13,2.74,2.97,5.07,1.55,8.03.19Zm318.05,41.4c-5.08,5.78-9.85,11.19-14.75,16.76,5.15,4.56,9.97,8.87,14.84,13.12.45.39,1.4.8,1.77.59,4.67-2.68,6.56,1.54,9.15,3.73.67.57,1.16,2.3.79,2.97-2,3.6.53,4.85,3.13,6.74,2.78-6.75,5.58-13.15,7.96-19.69.48-1.3-.32-3.33-1.06-4.75-1.06-2.01-2.81-1.74-4.77-.89-5.45,2.36-11,4.5-15.12,6.17-3.66-2.65-6.68-4.85-9.84-7.13,4.57-5.32,8.23-9.59,12.11-14.11-1.47-1.22-2.65-2.2-4.21-3.5ZM73.81,326.73c-6.94,1.69-13.48,3.31-20.03,4.88-1.87.45-3.4.87-3.65,3.36-.23,2.35.44,3.62,2.5,4.69,5.6,2.93,11.1,6.05,16.84,9.2-4.99,2.29-1.29,7.36-4.02,10.38-5.49-.38-11.12-.76-17.06-1.17-.14,2-.25,3.52-.39,5.47,7.72.42,15.03.81,22.71,1.23.34-6.13.55-11.79,1.04-17.43.19-2.13-.2-3.37-2.24-4.4-.9-.45-1.72-2.35-1.52-3.4.42-2.26,1.08-5.89,2.42-6.28,3.7-1.08,3.47-3.33,3.4-6.51Zm569.08-130.46c.12.22.23.43.35.65-2.79,2.37-5.57,4.74-8.44,7.18,1.33,1.53,2.24,2.58,3.29,3.8,6.09-4.84,11.91-9.47,18.03-14.34-5.9-6.07-11.98.02-17.93-1.65,1.28-3.27,2.41-6.61,3.89-9.8,1.39-3.01,1-5.23-2.16-6.95-5.69,4.48-11.37,8.95-17.26,13.58,1.25,1.54,2.28,2.81,3.3,4.07,3.03-2.3,5.69-4.31,8.34-6.33-.26,2.74-1.19,4.88-1.95,7.08-1.18,3.42-.31,4.47,3.21,3.94,2.45-.37,4.89-.83,7.34-1.25ZM105.92,236.67c1.02-1.78,1.8-3.16,2.55-4.48-3.49-2.12-6.45-3.91-9.4-5.7,2.42-.79,4.5-.56,6.56-.62,1.5-.04,2.99-.46,4.49-.71-.42-1.55-.64-3.2-1.29-4.64-.89-1.94-2.11-3.73-3.19-5.59.22-.2.44-.4.66-.6,3.15,1.99,6.3,3.98,9.65,6.1,1.06-1.72,1.86-3.02,2.79-4.51-6.58-4.05-12.83-7.89-18.99-11.68-2.87,2.41-2.74,4.67-.93,7.39,1.85,2.78,3.29,5.84,4.89,8.73-5.79,2.43-12.65-3.06-17.31,4.03,6.55,4.12,12.78,8.03,19.53,12.27Zm173.31-161.58c2.05,7.28,4,14.19,6.07,21.5,5.24-1.58,10.13-2.72,14.76-4.54,4.38-1.72,4.81-7.04,1.1-9.89-.7-.54-1.52-.92-2.22-1.34,1.91-6.6-1.26-10.23-7.63-8.89-3.86.81-7.64,1.99-12.07,3.16Zm396.94,439.25c-6.54-3.59-12.98-7.13-19.75-10.84-.95,1.73-1.73,3.15-2.63,4.81,3.38,1.9,6.36,3.57,9.44,5.3-5.41,3.11-12.89-.83-16.91,6.3,6.86,3.89,13.25,7.52,19.88,11.28,1.01-1.76,1.82-3.17,2.75-4.78-3.41-1.96-6.39-3.68-9.37-5.39,3.86-1.36,7.48-2.04,11.11-2.11,3.02-.06,4.69-1.27,5.48-4.57ZM58.57,448.89c7.43-1.68,14.58-3.3,22.1-5-.5-1.99-.9-3.55-1.3-5.13-3.96.79-7.46,1.49-10.98,2.2,1.86-5.73,10.29-7.84,7.76-15.75-7.69,1.73-14.84,3.35-22.16,5,.5,1.91.85,3.27,1.29,4.96,3.81-.7,7.4-1.37,11.11-2.05-1.75,5.66-10.65,7.53-7.82,15.78Zm620.54,61.05c.87-1.72,1.56-3.08,2.32-4.57-3.44-1.84-6.53-3.5-9.91-5.32,5.55-3.23,13.18.11,16.41-7.54-7.12-3.22-13.89-6.29-20.81-9.42-.96,1.84-1.71,3.29-2.52,4.83,3.75,1.71,7.05,3.21,10.52,4.79-5.16,3.77-13.29-.24-16.57,7.53,6.98,3.29,13.51,6.37,20.56,9.7Zm14.13-214.55c-1.76,6.14-10.03,8.4-7.92,16.25,7.72-1.78,14.86-3.42,22.32-5.14-.68-2.11-1.17-3.66-1.69-5.3-3.79.92-7.13,1.73-10.57,2.57,1.28-5.98,9.95-8.2,6.75-15.95-7.41,1.81-14.4,3.52-21.64,5.28.57,1.89,1.01,3.35,1.54,5.12,3.82-.96,7.34-1.85,11.2-2.83ZM183.48,148.37c2.57-1.75,4.76-3.2,6.91-4.71.97-.68,1.9-1.44,2.76-2.26,4.23-4.05,5.01-9.05,2.15-13.62-3.15-5.04-8.34-7.13-13.66-4.69-4.1,1.88-7.77,4.73-11.8,7.25,4.75,6.29,9.05,11.97,13.64,18.04Zm372.61-42.46c-4.15,6.65-7.96,12.74-11.98,19.17,3.78,2.23,7.05,4.47,10.59,6.17,5.49,2.62,11.16.63,14.29-4.63,3.07-5.17,2.26-10.22-2.66-14.01-3.1-2.39-6.57-4.32-10.25-6.69Zm114.64,109.67c-6.97,3.8-13.5,7.36-20.22,11.02,3.93,6.37,5.82,14.05,14.89,14.21,4.82.08,9.34-2.62,10.87-6.54,2.96-7.59-2.28-12.61-5.54-18.69ZM139.15,582.48c5.53-4.85,10.95-9.59,17.27-15.13-3.34-2.93-6.21-5.65-9.3-8.1-4.55-3.61-11.33-2.91-15.4,1.38-3.71,3.91-3.92,10.09-.18,14.43,2.22,2.58,4.88,4.78,7.61,7.42Zm550.82-179.99c-.54,4.06-1.26,7.55-1.43,11.08-.27,5.83,2.98,9.66,8.8,10.95,5.81,1.28,10.92-1.05,12.79-6.52,1.3-3.78,1.71-7.87,2.61-12.24-7.88-1.13-15.02-2.15-22.78-3.26ZM315.48,89.15c7.26.02,12.72-4.88,12.63-11.33-.09-6.65-4.97-11.59-11.47-11.64-7.03-.05-12.69,5.07-12.67,11.45.01,6.56,4.95,11.51,11.51,11.52Zm94.75-5.02c6.98.07,11.76-4.58,11.83-11.53.07-6.65-4.82-11.33-11.97-11.47-6.81-.13-11.93,4.51-12.07,10.92-.15,7.16,4.74,12,12.21,12.07Zm30.41-2.16c3.62-1.02,4.47,1.56,5.23,3.71,1.25,3.56,3.82,3.97,7.23,3.77-1.08-2.59-2.03-4.85-2.96-7.08,7.93-4.17,6.09-13.31.93-14.82-4.32-1.26-8.81-1.97-13.36-2.95-1.4,7.76-2.65,14.66-3.91,21.67,2.15.4,3.67.67,5.37.99.51-1.85.97-3.47,1.47-5.28ZM51.7,416.76c7.75-.87,14.89-1.67,22.46-2.51-.59-4.01-.84-7.56-1.66-10.98-1.54-6.44-6.76-9.44-13.64-8.19-5.5,1-9.09,5.9-8.55,11.95.28,3.12.87,6.22,1.39,9.73Zm41.99-169.21c-.14-.52-.27-1.04-.41-1.55,1.72-.68,3.48-2,5.17-1.92,3.99.19,5.43-1.8,5.83-5.47-.66,0-1.31-.11-1.91.02-3.29.7-5.81,1.26-7.86-3.05-2.48-5.2-10.37-4.91-13.46,0-1.86,2.96-3.26,6.21-5.01,9.6,6.91,3.51,13.45,6.83,20.3,10.32.87-1.9,1.56-3.39,2.3-5.02-1.84-1.09-3.4-2-4.95-2.92Zm589.91,237.94c6.4-.03,11.69-5.32,11.56-11.57-.12-6.18-5.8-11.15-12.63-11.06-6.22.08-11.32,5.23-11.33,11.42,0,6.23,5.53,11.24,12.4,11.21Zm-561.71,43.16c-.36.56-.64.87-.76,1.23-1.2,3.55-2.15,6.52-7.41,6.07-4.65-.4-8.28,5.12-6.46,9.14,1.79,3.95,4.6,7.44,7.06,11.28,6.71-4.68,12.65-8.84,18.89-13.2-1.23-1.57-2.24-2.85-3.23-4.11-1.97,1.19-3.63,2.19-5.29,3.2-.44-.13-.88-.26-1.32-.39.12-1.69-.23-3.63.47-5.04,1.64-3.31,1.02-5.8-1.95-8.17Zm570.16-151.91c.21.07.35.18.46.15.38-.1.81-.16,1.11-.39,3.04-2.39,5.66-2.88,9.43-.49,4.75,3,10.44.04,11.16-5.32.5-3.72.1-7.56.1-11.28h-22.5v5.1c2.13.17,4.03.32,5.94.47l.73,1.08c-1.18,1.25-2.14,2.91-3.57,3.66-3.17,1.64-3.94,3.88-2.85,7.03ZM85.85,460.89c.08-6.51-4.99-11.78-11.36-11.81-6.73-.03-12.11,4.88-12.15,11.06-.03,6.29,5.26,11.55,11.68,11.61,6.47.06,11.75-4.79,11.83-10.87Zm.59-181.72c-7.39-2.27-14.52-4.46-21.91-6.74-.56,1.85-.99,3.29-1.45,4.82,2.86,1.05,5.38,1.99,8.17,3.01-.93,2.78-1.71,5.1-2.57,7.67-2.88-.73-5.38-1.36-8.16-2.06-.57,1.66-1.04,3.05-1.61,4.72,7.49,2.37,14.49,4.58,21.8,6.9.51-1.91.9-3.36,1.34-5.01-2.95-1.04-5.52-1.95-8.53-3.01.89-2.6,1.72-5,2.61-7.59,3.06.87,5.69,1.62,8.62,2.45.56-1.71,1.08-3.29,1.69-5.16Zm432.83-177.11c.65-1.3,1.21-2.43,1.91-3.82-2.22-.9-4.13-1.77-6.1-2.47-2.39-.84-3.81-1.93-1.5-4.82,3.36,1.22,6.78,2.47,10.42,3.8.58-1.35,1.09-2.51,1.75-4.03-5.33-2.18-10.39-4.26-15.61-6.39-2.99,6.97-5.8,13.51-8.78,20.47,5.43,2.24,10.72,4.42,16.22,6.69.65-1.71,1.1-2.89,1.64-4.31-3.63-1.55-6.99-2.98-10.56-4.5.59-1.38,1.03-2.41,1.59-3.72,2.97,1.02,5.69,1.96,9.03,3.11Zm-315.75,32.57c5.06-3.16,9.82-6.13,14.77-9.22-.95-1.48-1.65-2.57-2.48-3.85-3.33,1.95-6.48,3.8-9.88,5.8-.82-1.21-1.53-2.24-2.45-3.59,2.8-1.75,5.33-3.33,8.19-5.13-.82-1.27-1.54-2.4-2.24-3.48q-8.66,4.37-10.16,1.17c2.9-1.86,5.84-3.76,9-5.78-.94-1.35-1.72-2.47-2.6-3.75-4.93,3.05-9.47,5.86-14.2,8.78,4.15,6.56,8.01,12.66,12.06,19.05Zm361.06,3.43c5.1,3.58,9.58,6.73,14.21,9.98,1.03-1.53,1.74-2.58,2.58-3.83-3.09-2.22-5.95-4.28-9.12-6.56,1.05-1.34,1.88-2.4,2.69-3.44,2.87,1.88,5.36,3.51,8.07,5.29.9-1.43,1.56-2.48,2.28-3.63-2.75-2.02-5.16-3.8-7.72-5.68.9-1.2,1.58-2.1,2.31-3.07,3.2,2.06,6.17,3.97,9.38,6.03.89-1.31,1.6-2.35,2.54-3.72-4.65-3.19-9.06-6.21-13.68-9.38-4.52,6.01-8.87,11.79-13.55,18Zm95.27,77.28c-1.83-2.67-3.39-4.95-5.14-7.5,1.31-.75,2.4-1.37,3.69-2.11,1.97,2.93,3.79,5.64,5.74,8.54,1.4-.92,2.56-1.69,3.95-2.61-3.11-4.61-6.02-8.93-9.02-13.39-6.67,4.29-12.85,8.26-19.3,12.41,3.14,4.6,6.1,8.93,9.24,13.52,1.4-.89,2.54-1.61,3.88-2.46-1.5-2.21-2.68-4.1-4.01-5.89-1.93-2.58-1.46-4.26,1.94-5.25,1.69,2.39,3.4,4.81,5.17,7.31,1.44-.96,2.51-1.67,3.88-2.58Zm-505.87-53.71c2.51-2.35,4.68-4.37,7.03-6.56-1.14-1.35-1.96-2.32-2.73-3.23q-7.56,6.29-10.16,2.99c2.54-2.29,5.15-4.64,7.92-7.14-1.08-1.28-1.9-2.26-2.88-3.43-4.33,4.01-8.17,7.57-12.46,11.55,5.23,5.49,10.27,10.79,15.47,16.25,4.39-3.94,8.38-7.52,12.61-11.31-1.26-1.32-2.2-2.31-3.22-3.39-3.05,2.61-5.8,4.97-8.67,7.43-1.1-1.19-1.89-2.04-2.9-3.14Zm318.49-66.55c.43-1.59.77-2.88,1.18-4.4-3.91-1.13-7.41-2.14-11.2-3.24.36-1.49.65-2.7,1.02-4.23,3.31.89,6.31,1.69,9.49,2.54.3-.8.6-1.37.71-1.98.14-.74.11-1.51.15-2.2q-8.99-3.6-8.08-6.54c3.48.8,7,1.61,10.72,2.47.39-1.51.7-2.71,1.09-4.21-5.5-1.38-10.71-2.69-16.3-4.1-1.86,7.25-3.65,14.2-5.51,21.42,5.57,1.49,10.77,2.87,16.71,4.46Zm-338.62,100.39c-7.55-1.88-14.53-3.76-21.59-5.23-1.18-.25-3,1.05-4.04,2.11-.68.69-1.05,2.57-.59,3.36,3.74,6.45,7.71,12.76,11.66,19.19q2.87-3.4,1.73-7.55c-.63-2.27,4.1-8.65,6.13-7.88,3.82,1.44,4.81-1.15,6.7-4Zm520.46,353.26c3.26-4.61,6.18-8.74,9.2-13.01-6.76-4.41-13.01-8.48-19.38-12.64-3.14,4.46-6.09,8.65-9.25,13.13,1.44.93,2.7,1.75,4.06,2.62,2.12-2.94,4.02-5.57,6.03-8.33,1.39.93,2.45,1.64,3.68,2.46-1.6,2.48-3.08,4.77-4.74,7.35,1.35.79,2.54,1.48,3.83,2.23,1.72-2.53,3.25-4.78,4.88-7.18,1.29.84,2.25,1.46,3.35,2.18-1.8,2.82-3.49,5.45-5.29,8.28,1.23.98,2.22,1.77,3.64,2.9ZM95.4,256.11c-7.61,0-14.96-.05-22.31.03-2.61.03-5.01,4.26-3.29,5.97,5.39,5.35,11.05,10.42,17.23,16.19.54-2.94,3.54-4.62.31-7.2-.83-.66-1.51-2.69-1.1-3.5,1.11-2.15,2.64-5.4,4.37-5.64,3.84-.54,4.23-2.71,4.79-5.86Zm594.41-3.86c-2.37-4.98-4.56-9.58-6.85-14.42-7.11,3.21-13.79,6.24-20.72,9.37,2.45,5.22,4.66,9.94,6.93,14.78,1.72-.79,2.89-1.32,4.28-1.96-1.55-3.31-3.03-6.45-4.62-9.85,1.72-.6,2.91-1.02,4.17-1.46,1.5,2.77,2.87,5.28,4.28,7.88,1.36-.66,2.4-1.15,3.62-1.74-1.21-2.85-2.33-5.48-3.61-8.47,1.38-.46,2.53-.85,3.73-1.25,1.66,3.24,3.14,6.14,4.67,9.15,1.39-.68,2.44-1.19,4.12-2.02Zm-70.78,329.4c-2.89,2.48-5.37,4.6-8.02,6.87,1.24,1.13,2.18,1.99,3.18,2.91,3.82-3.92,7.46-7.65,11.31-11.6-5.26-4.86-10.58-9.76-16.05-14.81-3.8,4.1-7.42,8.01-11.15,12.03.69.6,1.65,1.44,2.71,2.37,2.71-2.45,5.23-4.73,7.99-7.23,1.15,1.24,2.06,2.22,3,3.23-2.27,2.17-4.16,3.97-6.17,5.88,1.24,1.15,2.28,2.12,3.8,3.52,1.95-2.29,3.73-4.38,5.61-6.59,1.2,1.09,2.05,1.86,3.78,3.43Zm89.61-270.19c-7.62,1.29-14.95,2.53-22.53,3.82,1.08,5.54,2.05,10.53,3.07,15.72,1.57-.25,2.69-.44,4.12-.67-.37-3.56-.72-6.92-1.1-10.51,1.35-.15,3.14-.61,3.27-.32,1.19,2.64,2.1,5.42,3.17,8.4,1.24-.29,2.44-.56,3.62-.84-.4-3.15-.74-5.87-1.12-8.88,1.4-.14,2.5-.26,3.81-.39.71,3.32,1.36,6.38,2.08,9.76,1.57-.33,2.9-.61,4.52-.95-1-5.19-1.91-9.95-2.9-15.14ZM100.97,537.8c6.72-4.07,12.98-7.85,19.34-11.71-3.06-4.76-5.78-8.97-8.64-13.43-1.4.85-2.59,1.58-3.96,2.41,1.94,3.15,3.71,6.01,5.64,9.14-1.47.86-2.55,1.48-3.8,2.21-1.81-2.66-3.42-5.03-5.21-7.65-1.33.97-2.42,1.77-3.49,2.56,1.74,2.65,3.23,4.92,5,7.61-7.34,2.9-6.11-5.44-10.44-6.38-.75.5-1.92,1.28-3.29,2.2,2.94,4.33,5.74,8.45,8.85,13.04ZM474.68,93.75c3.55,3.62,7.83,5.39,12.76,5.48,3.25.06,5.6-1.65,6.55-4.76.91-2.95-.63-5.11-2.96-6.75-1.51-1.06-3.21-1.87-4.62-3.04-.7-.59-.94-1.73-1.39-2.62,1.05-.32,2.26-1.13,3.11-.86,2.2.71,4.25,1.9,6.67,3.04.81-.97,1.69-2.04,2.68-3.22-3.88-3.66-8.23-5.72-13.13-4.45-2.11.55-4.42,2.92-5.24,5.01-.53,1.37,1.13,3.98,2.41,5.55,1.2,1.47,3.31,2.17,4.76,3.49.81.74,1.1,2.05,1.62,3.11-1.2.19-2.64.89-3.57.47-2.46-1.11-4.71-2.71-7.17-4.18-.81,1.21-1.59,2.38-2.49,3.73Zm-249.55,4.09c-2.59.64-4.68.94-6.59,1.68-5.39,2.09-8.01,6.16-6.75,10.13,1.22,3.84,4.32,4.73,10.74,3.41,1.81-.37,3.77-.06,5.66-.06.11.48.22.95.33,1.43-1.47.94-2.83,2.16-4.43,2.74-1.8.66-3.8.74-5.91,1.1.14,1.96-1.15,5.26,2.24,4.53,3.94-.84,7.84-2.81,11.2-5.11,2.38-1.63,2.54-4.79,1.14-7.6-1.42-2.85-3.84-3.35-6.69-2.82-1.81.34-3.62.87-5.44.96-1.12.05-2.28-.58-3.42-.9.68-1.04,1.13-2.53,2.09-3.02,1.92-.98,4.12-1.4,6.28-2.08-.13-1.36-.24-2.51-.43-4.4Zm466.39,285.32c.3-.02.59-.03.89-.05,1.12,1.37,3.12,2.73,3.15,4.12.04,2.35-.47,5.98-2,6.83-3.01,1.68-3.43,3.44-2.73,6.63,7.24-2.26,14.31-4.39,21.29-6.76.84-.29,1.66-1.93,1.69-2.97.03-1.23-.47-3.18-1.33-3.61-6.59-3.24-13.33-6.18-20.45-9.41-.2,2.14-.35,3.68-.5,5.21ZM71.13,310.71c.38-1.93.82-3.46.98-5.01.44-4.35-1.95-7.66-6.26-8.87-3.87-1.08-7.58.3-8.92,3.9-1.36,3.66-2.12,7.55-3.26,11.77,7.64,1.78,14.77,3.44,22.14,5.16.46-1.96.8-3.43,1.18-5.05-2.04-.66-3.77-1.22-5.85-1.9Zm-22.42,80.37h22.81c-.33-5.6-.61-10.54-.92-15.75-1.65.07-2.9.13-4.37.19v10.64c-7.78.5-2.82-6.23-5.86-8.89-.6.03-1.81.09-3.28.17v8.92c-1.52-.08-2.73-.14-4.07-.21-.25-3.53-.47-6.65-.7-10.04-1.56.09-2.8.16-4.33.25.25,5.17.48,10.01.71,14.73Zm91.97-212.72c-1.08,5.2-2.95,7.39-6.15,7.54-3.1.14-6.87-2.53-7.38-5.54-.87-5.14,3.04-6.63,6.95-8.1-.32-1.58-.6-2.95-.87-4.3-7.92,1.21-12.47,6.39-11.72,13.05.66,5.89,6.91,10.85,13,10.35,6.4-.53,11.08-6.2,10.56-12.99h-4.38Zm550.13,95.27c3.88,2.51,4.55,2.49,5.37-.02,1.7-5.22-1.2-11.5-6.4-13.92-5.08-2.35-12.17-.32-15.09,4.32-2.98,4.74-1.95,11.62,2.5,15.01.95.72,3.26,1.13,3.85.56,1.26-1.23,1.68-2.76-.35-4.58-1.45-1.29-2.62-4.4-2.04-6.05.67-1.91,3.18-3.91,5.25-4.43,5.4-1.36,7.74,1.89,6.93,9.1ZM84.64,501.25c-2.63,5.84-1.52,10.67,2.38,13.93,4,3.35,9.98,3.53,14.8.45,4.24-2.71,5.82-6.98,4.46-12.08-1.25-4.72-4.37-7.32-9.05-7.37-.3,1.17-.6,2.39-.88,3.5.46.34.65.54.89.65,3.32,1.49,5.15,3.88,3.86,7.55-1.21,3.44-4.14,4.81-7.57,4.49-3.75-.35-5.21-2.8-5.55-6.52-.13-1.45-1.93-2.76-3.33-4.6ZM526.19,95.8c2.01,1.21,3.88,2.34,5.75,3.47-2.58,5.32-5.03,10.36-7.6,15.67,2.03.87,3.53,1.51,5.1,2.19,2.8-5.46,5.36-10.47,7.91-15.44,2.26.93,4.16,1.7,6.28,2.57.62-1.73,1.04-2.9,1.53-4.28-5.81-2.82-11.34-5.5-16.97-8.23-.79,1.6-1.36,2.76-2,4.06Zm-142.36-13.36h5.82v-17.08c2.62-.16,4.67-.29,6.91-.43-.13-1.69-.22-2.95-.32-4.33h-18.92v4.34c2.25.13,4.18.25,6.5.39v17.11Zm330.49,272.81c-.5-6.04-.96-11.64-1.45-17.58-1.73.11-3.09.2-4.73.31v6.21c-5.89.61-11.5,1.19-17.45,1.8.09,1.72.18,3.23.28,5.05,6.14-.39,11.97-.76,17.81-1.13.47,2.26.83,4.01,1.22,5.86,1.51-.19,2.66-.33,4.32-.53Zm-16.54,98.88c1.55.48,2.76.85,4.41,1.35,1.58-5.84,3.08-11.37,4.65-17.14-1.88-.4-3.22-.69-4.53-.97q-2.06,5.69-7.73,4.32c-3.7-.89-7.42-1.73-11.41-2.66-.48,1.75-.88,3.2-1.34,4.87,5.94,1.63,11.46,3.14,17.05,4.67-.4,2.04-.71,3.57-1.1,5.56Zm-600.12,33.58c-.77-1.75-1.38-3.16-2.11-4.83-5.67,2.36-10.96,4.57-16.36,6.82-1.16-1.96-2.16-3.63-3.24-5.45-1.41.76-2.61,1.42-4.06,2.21,2.65,5.38,5.14,10.43,7.72,15.67,1.49-.64,2.63-1.13,3.85-1.66-.78-2.08-1.46-3.88-2.19-5.83,5.5-2.32,10.7-4.52,16.4-6.93Zm524.12,64.31c-3.59,3.84-6.91,7.4-10.44,11.17,1.14,1.02,2.18,1.96,3.35,3.01,2.47-2.34,4.74-4.49,7.09-6.72,4.65,3.9,9.06,7.6,13.61,11.41,1.32-1.57,2.3-2.74,3.49-4.15-5.7-4.91-11.19-9.63-17.1-14.71Zm11.67-6.19c5.03,3.69,9.68,7.1,14.52,10.65,1.13-1.43,2.08-2.63,3.31-4.17-6.2-4.67-12.15-9.15-18.28-13.76-3.31,4.08-6.42,7.9-9.72,11.96,1.42.99,2.56,1.77,3.8,2.63,2.18-2.51,4.15-4.78,6.38-7.33ZM423.92,85.04c2.11.28,3.86.52,5.94.8.95-7.49,1.84-14.6,2.78-21.98-2.12-.24-3.76-.42-5.82-.64-.96,7.25-1.89,14.24-2.9,21.83Zm-274.44,93.81c1.37-1.53,2.57-2.87,3.87-4.31-5.47-5.13-10.73-10.07-15.95-14.96-1.57,1.22-2.88,2.24-3.64,2.83,5.5,5.76,10.49,10.98,15.72,16.44Zm536.63,246.49c-.39,2.03-.68,3.52-1.05,5.4,7.6,1.56,14.87,3.06,22.46,4.62.33-2.13.59-3.74.87-5.53-7.56-1.52-14.65-2.95-22.28-4.48Zm14.97,33.27c-7.41-2.21-14.56-4.34-22.04-6.57-.47,1.95-.86,3.52-1.3,5.36,7.45,2.24,14.45,4.34,21.66,6.51.62-1.94,1.08-3.41,1.68-5.3Zm-611.11,11.58c-7.36,2.74-14.19,5.27-21.28,7.91.84,1.94,1.5,3.44,2.19,5.03,7.26-2.69,14.11-5.23,21.2-7.86-.79-1.91-1.38-3.32-2.11-5.08Zm589.47-180.79c7.38-2.26,14.26-4.36,21.29-6.52-.56-1.99-.98-3.46-1.49-5.27-7.38,2.21-14.38,4.32-21.67,6.5.69,1.96,1.21,3.42,1.87,5.28ZM121.59,564.23c6.15-4.8,11.91-9.28,17.82-13.89-1.31-1.5-2.31-2.66-3.52-4.05-6.06,4.63-11.85,9.06-17.87,13.66,1.27,1.53,2.26,2.71,3.57,4.29Zm52.68-402.01c3.26-1.44.94-4.28.42-6.56-.57-2.49-2.12-4.42-4.99-3.81-1,.21-2.42,1.6-2.44,2.48-.02,1.2.89,2.62,1.79,3.58,1.29,1.39,2.93,2.45,5.22,4.31Z"/>
  <path class="cls-1" d="m0,456.17c4.21,12.79,7.92,25.76,12.71,38.32,16.88,44.24,42.25,83.21,74.84,117.45,54.77,57.54,121.27,94.8,198.55,112.37,99.79,22.68,196.01,11.84,287.01-35.39,78.34-40.66,137.04-100.93,172.89-182.24,17.77-40.3,26.77-82.69,27.97-126.73.07-2.51.16-5.04-.04-7.54-.52-6.49-3.27-8.51-9.68-7.54-1.59.24-3.24.04-4.36.04-4.03-17.41-.72-33.96,2.08-50.51.47-2.79.11-4.93-1.55-7.35-12.32-17.94-20.53-37.55-23.35-59.25-.24-1.83-.27-3.7-.36-5.55-.02-.32.18-.66.48-1.7,4.75,21.36,13.84,39.91,27.54,57.35.99-4.89,1.69-8.87,2.62-12.81,1.73-7.34,5.18-14.7,4.93-21.95-.25-7.14-4.39-14.1-6.49-21.24-4.59-15.64-6.79-31.52-3.95-47.84.66,19.22,5.67,37.27,14.61,55.22.73-1.88,1.19-3.13,1.7-4.36,3.73-9.18,7.62-18.31,11.11-27.58.86-2.28,1.01-5.15.52-7.56-2.96-14.31-3.79-28.58-.32-42.91.43-1.76,1.04-3.48,1.86-5.19-1.63,14.58-.64,28.86,3.95,43.58,2.61-4.14,4.78-7.72,7.08-11.2,4.01-6.07,8.19-12.04,12.1-18.17.84-1.31,1.21-3.18,1.14-4.77-.44-10.65,1.5-20.81,5.82-30.53.58-1.3,1.27-2.54,2.18-3.73-3.09,9.73-3.97,19.59-2.71,29.95,10.37-10.77,20.47-21.27,30.56-31.76.18.17.36.35.54.52-8.95,11.48-17.89,22.96-26.84,34.44.28.34.56.68.85,1.01,9.76-.99,18.7-4.54,27.7-8.87-1.31,1.08-2.57,2.24-3.94,3.24-7.61,5.54-16.15,8.96-25.24,11.18-1.44.35-3.36.99-3.98,2.1-5.92,10.6-11.61,21.33-16.9,32.5,14.87-3.38,28.92-8.01,41.61-16.64-.88.98-1.71,2-2.65,2.92-1.03,1.02-2.12,2-3.25,2.91-10.85,8.83-23.37,14.43-36.52,18.75-2.51.82-4.04,2.06-4.87,4.57-3.53,10.64-7.19,21.24-11.16,32.91,22.09-3.94,40.54-12.94,57.29-25.8.22.28.43.55.65.83-5.59,4.77-10.85,10-16.82,14.23-12.18,8.62-25.48,15.08-40.03,18.8-1.26.32-3.01,1.64-3.23,2.74-2.32,11.94-4.38,23.93-6.49,35.91-.09.49.06,1.02.15,2.22,23.81-3.98,44.54-14.04,63.63-28.34-1.26,1.38-2.48,2.8-3.79,4.13-15.94,16.12-35.1,26.68-56.91,32.42-3.65.96-4.9,2.45-4.8,6.15.23,8.33.15,16.68,0,25.02-.05,2.92,1.15,3.78,3.88,4.16,51.25,7.18,92.57-30.95,99.72-76.05,3.11-19.57.12-38.74-2.73-58.03-2.22-15.03-4.23-30.16-4.91-45.31-.68-15.07,2.96-29.69,8.93-43.62.34-.79.74-1.57,1.63-2.22v3.42c0,206.21,0,412.41,0,618.62,0,1.72.09,3.44.13,5.16H0c0-98.28,0-196.56,0-294.83Z"/>
  <path class="cls-1" d="m0,.8c2.91.05,5.82.13,8.73.13,289.42,0,578.84,0,868.26,0,1.83,0,3.66,0,5.71,0v104.82c-7.82,1-15.7,1.76-23.49,3.05-33.57,5.55-65.49,15.73-92.9,36.57-41.16,31.31-57.24,73.77-52.9,124.5,1.74,20.28,8.45,39.13,20.62,55.52,6.51,8.77,8.87,18.44,9.75,28.82.28,3.28.04,6.6.04,10.24h-9.98c-.4-4.89-.91-9.97-1.22-15.06-.43-7.04-3.6-12.9-7.67-18.4-14.26-19.29-20.73-41.47-23.78-64.84-2.24-17.2-1.26-34.37,2.04-51.35.95-4.88,2.79-9.62,4.63-14.26,1.14-2.86.97-4.99-.72-7.64-29.59-46.49-68.24-83.81-114.64-113.25-48.72-30.91-101.89-49.56-159.05-56.83-72.66-9.23-143.02-.2-210.24,28.99-70.85,30.76-127.89,78.34-169.22,143.98-24.28,38.57-39.94,80.48-46.71,125.59-6.26,41.72-4.48,83.14,5.3,124.2.18.76.32,1.53.44,2.15-2.27-.61-4.68-1.98-6.81-1.62-2.22.37-4.16,2.4-6.22,3.7C0,300.14,0,150.47,0,.8Z"/>
  <path class="cls-1" d="m136.55,612.49c10.79-13.97,24.24-23.87,40.66-29.63,10.3-3.61,20.92-5.69,31.9-5.69,109.4,0,218.8-.28,328.2.15,32.24.13,57.69,14.64,75.88,41.45.65.96,1.18,2.02,1.75,3-130.92,107.4-342.91,109.7-478.38-9.29Zm308.32,42.24l-.6.08c-2.06-7.21-4.15-14.41-6.19-21.63-3.45-12.21-6.86-24.44-10.32-36.65-.97-3.41-2.41-6.52-6.21-7.62-10.37-3.02-16.88,1.66-16.74,12.31.34,25.95.83,51.89,1.31,77.83.03,1.7.28,3.43.68,5.09.79,3.26,2.79,5.42,6.28,5.68,3.55.26,6.28-1.35,7.62-4.58.84-2.02,1.26-4.34,1.29-6.54.09-5.82-.21-11.65-.23-17.47-.04-13.32-.01-26.65-.01-39.97-.37.57-.05,1.25.15,1.96,4.34,16.08,8.65,32.18,13,48.26.83,3.06,1.4,6.31,2.91,9.02,1.14,2.06,3.52,4.66,5.45,4.74,2.45.1,5.4-1.65,7.36-3.45,1.47-1.35,1.99-3.98,2.46-6.14,2.75-12.66,5.36-25.36,8.02-38.04,1.29-6.17,2.59-12.34,3.89-18.51,1.31,17.58,2.09,35.04,2.91,52.49.15,3.21,1.04,6.24,4.57,7.11,3.75.92,7.16-.57,8.77-3.88,1.38-2.83,2.22-6.29,2.1-9.43-.86-22.49-2-44.96-3.11-67.44-.29-5.87-3.4-9.15-8.95-9.83-7.74-.95-11.9,1.04-13.53,7.11-1.85,6.89-3.32,13.89-4.81,20.87-2.75,12.87-5.39,25.75-8.08,38.63Zm-157.6-7.3c3.63.31,5.85.51,8.08.7,4.74.39,9.48,1.1,14.23,1.11,8.97.02,15.68-4.06,19.87-12.09,4.23-8.11,4.55-16.75,3.13-25.52-2.16-13.29-9.73-20.69-22.93-21.58-9.62-.65-19.3-.36-28.96-.33-3.74,0-6.2,2.22-7.3,5.67-.63,1.98-.89,4.14-.97,6.23-.8,20.88-1.54,41.76-2.24,62.65-.08,2.36-.08,4.8.42,7.09,1.19,5.4,5.4,8.68,10.09,8.26,4.09-.37,6.33-3.26,6.52-9.38.23-7.37.05-14.76.05-22.81Zm-90.24-29.44s-.05,0-.07,0c0,6.88-.04,13.76.01,20.64.03,4.4,1.77,8.23,5.56,10.39,9.66,5.51,19.58,10.56,30.72,12.43,11.17,1.88,19.21-2.39,23.54-12.88,4.57-11.08,5.17-22.59,2.44-34.26-3.76-16.09-13.62-24.5-30.13-25.3-7.79-.38-15.62-.32-23.42-.23-6,.07-8.56,2.82-8.63,8.95-.08,6.75-.02,13.5-.02,20.25Zm146.81,20.15c-.26,0-.53,0-.79,0,0,12.97-.14,25.95.05,38.92.12,8.48,3.7,12.2,12.09,12.45,11.25.34,22.51.34,33.76.34,6.05,0,8.78-3.16,8.79-9.71,0-6.41-2.78-9.41-8.99-9.49-7.94-.11-15.89-.31-23.83-.13-3.56.08-4.73-.84-4.67-4.61.36-21.31.47-42.63.56-63.95.01-2.74-.34-5.57-1.09-8.21-.91-3.2-3.33-5.01-6.79-5.12-3.66-.11-6.69,1.24-7.86,4.8-.85,2.58-1.15,5.44-1.18,8.18-.12,12.18-.05,24.36-.05,36.54Zm168.26-34.74c.15,1.75.32,3.04.37,4.34.59,14.55,1.15,29.1,1.77,43.65.09,2.11.22,4.25.68,6.3.88,3.94,3.44,5.43,7.38,4.57,5.05-1.1,8.83-5.68,8.84-11.28.01-5.69-.34-11.38-.57-17.07-.44-10.43-.91-20.86-1.38-31.61,1.91-.19,3.45-.39,4.99-.49,4.09-.28,8.21-.33,12.28-.82,4.72-.57,7.04-3.05,6.84-6.7-.19-3.51-2.9-5.59-7.65-5.84-1.06-.06-2.12-.05-3.18-.04-8.21.12-16.42.23-24.63.37-7.68.14-15.36.28-23.04.48-3.33.09-5.99,1.37-6.83,4.89-1.45,6.06,1.94,10.27,8.14,10.07,5.14-.16,10.28-.53,15.98-.84Z"/>
  <path class="cls-1" d="m350.31,263.33c8.57-2.98,16.47-6.43,24.71-8.46,28.59-7.04,57.14-7.52,85.19,2.73,10.87,3.97,20.34,10.06,27.04,19.92,7.07,10.42,8.57,21.94,7.68,34.13-.85,11.61-1.56,23.24-2.08,34.87-.39,8.76-3.68,15.77-10.78,21.09-16.12,12.06-34.35,19.15-53.94,22.96-25.46,4.96-50.64,3.38-75.27-4.56-16.83-5.42-30.23-15.37-36.94-32.35-1.85-4.68-2.96-10.02-2.88-15.03.21-12.52-.04-25.17,4.42-38.08-1.3.86-2.04,1.21-2.6,1.74-1.44,1.36-2.93,2.71-4.19,4.23-16.74,20.32-49.53,19.88-68.17,5.52-12.96-9.98-17.76-23.34-13.72-39.29,2.97-11.69,8.18-22.41,14.7-32.39,12.86-19.7,25.46-39.65,39.56-58.46,9.28-12.38,22.27-21.23,37.54-25.41,19.45-5.33,46.47,5.32,57.52,22.13,6.63,10.08,5.45,20.92,2.85,31.81-4.09,17.15-13.31,31.56-24.33,44.99-2.06,2.51-4.06,5.08-6.31,7.9Zm60.21,92.36c-.12-1.78-.15-3.09-.31-4.37-3.99-30.41-8.03-60.81-11.95-91.22-.37-2.89-1.91-2.96-4.1-2.67-16.84,2.24-32.78,7.06-47.28,16.14-7.17,4.49-13.65,9.89-17.69,17.33-13.48,24.83-10.43,42.42,16.04,53.69,8.79,3.74,18.36,5.86,27.76,7.87,12.15,2.59,24.51,3.82,37.54,3.23Zm6.7-.17c4.46-.66,8.36-1.18,12.25-1.82,14.31-2.33,28.32-5.57,40.5-14.06,18-12.54,20.54-26.82,17.38-45.37-2.42-14.17-12.34-22.95-24.98-28.82-18.04-8.38-37.17-9.8-56.67-8.81-.33.02-.64.35-1.13.65,4.19,32.52,8.38,65.04,12.66,98.22Zm-81.76-84.95c-21.46-13.31-42.49-26.3-63.46-39.4-3.93-2.45-7.63-5.31-8.48-11.41-4.02,6.3-7.66,11.76-11.06,17.37-7.05,11.66-14.15,23.34-17.65,36.69-2.07,7.9-2.12,15.71,2.23,23.06,12.71,21.51,47.82,26.26,65.59,8.63,8.64-8.57,16.8-17.63,25.14-26.49,2.7-2.87,5.31-5.83,7.69-8.44Zm127.99,100.58c17.56-5.53,26.42-20.17,23.27-38.6-2.96,4.71-6.75,8.24-6.06,14.31.7,6.12-1.89,11.37-6.61,15.42-3.39,2.91-6.86,5.75-10.6,8.88Zm-114.44-121.97c16.24-16.38,30.23-41.07,26.08-56.25-2.79,21.88-14.51,38.98-26.08,56.25Z"/>
  <path class="cls-1" d="m209.35,572.12c-5.56.55-10.02,1.1-14.49,1.36-1.16.07-2.6-.5-3.52-1.25-53.32-43.63-87.16-98.8-96.71-167.44-9.52-68.42,7.12-130.84,48.21-186.12,46.77-62.91,110.07-99.69,186.97-112.84,59.66-10.2,117.77-3.63,173.42,20.61,56.28,24.52,100.83,62.76,132.29,115.75,18.72,31.54,30.27,65.58,33.68,102.09,7.46,79.77-18.1,148.02-73.23,205.5-8.58,8.95-18.4,16.73-27.82,24.84-1.22,1.05-3.58,1.36-5.31,1.14-3.51-.45-6.94-1.5-11.07-2.46,1.58-1.2,2.78-2.14,3.99-3.05,46.84-35.19,79.87-80.26,95.01-137.09,19.51-73.23,6.54-141.4-36.84-203.21-42.19-60.12-100.7-96.41-172.16-111.31-70.26-14.65-137.68-5.18-200.8,29.29-58.55,31.97-101.23,78.67-123.5,142.1-26.52,75.51-16.07,147.13,26.62,214.17,15.4,24.18,35.18,44.7,57.95,62.24,2.18,1.68,4.34,3.37,7.3,5.68Z"/>
  <path class="cls-1" d="m626.76,619.89c5.01,4.96,11.1,4.14,17.75.31-9.75,16.57-81,59.81-122.84,75.21-45.95,16.91-93.36,25.18-142.32,24.92-48.82-.26-96.05-8.92-141.68-26.27-45.67-17.37-86.63-42.33-122.26-76.04,5.75,1.72,11.27,2.36,16.72-.94.71-.43,2.82.78,3.89,1.7,25.71,22.03,54.12,39.83,84.91,53.81,59.93,27.2,122.83,37.86,188.39,33.36,64.23-4.41,123.74-23.5,178.05-58.14,13.36-8.52,25.91-18.31,39.4-27.92Z"/>
  <path class="cls-1" d="m306.04,532.03c-1.77.08-2.93.19-4.1.19-36.15-.07-72.3-.14-108.45-.28-2.14,0-5.92-.28-6.13-1.14-.78-3.1-1.46-7.03-.16-9.66,2.3-4.64,5.76-8.83,9.32-12.68,3.21-3.46,6.92-6.64,10.92-9.13,2.75-1.71,3.19-3.56,3.33-6.35.12-2.34.82-4.77,1.79-6.93,1.66-3.66,4.95-4.13,8.62-3.83,2.76.23,5.56.04,8.34.02,7.92-.06,11.35,3.09,11.09,10.98-.14,4.05,1.09,5.41,5.14,5.04,3.94-.35,7.95.12,11.9-.12,1.01-.06,2.76-1.39,2.79-2.19.23-6.18.13-12.38.13-19.01h-59.83v-7.69h59.3c.11-1.27.35-2.18.23-3.05-.55-4.17.85-6.8,5.19-7.89,1.2-.3,2.81-1.95,2.92-3.1.8-8.8-.3-17.3-6.46-24.18-1.86-2.08-4.55-3.61-7.14-4.77-1.08-.49-3.32.19-4.26,1.11-1.54,1.52-1.58,3.53.5,5.1,1.05.79,2.19,1.65,2.85,2.74.82,1.34,1.84,3.12,1.52,4.41-.25,1.02-2.31,1.72-3.68,2.3-.79.34-1.8.16-3.26.24.61,1.56,1.02,2.89,1.64,4.1,1.92,3.77,1.41,6.3-1.76,8.15-2.91,1.69-6.82.75-8.73-2.18-.79-1.22-1.35-2.58-2.11-3.81-.74-1.2-1.59-2.32-3.14-3.31,0,1.9.03,3.8-.01,5.69-.02,1.18.08,2.44-.27,3.54-.98,3.14-5.93,4.43-12.44,3.54-3.61-.49-4.42-2.85-4.39-5.94.01-.92,0-1.83,0-2.53-.35-.38-.53-.73-.71-.73-5.05.14-7.17-2.38-8.37-7.27-1.53-6.25-4.28-12.2-6.43-18.3-.39-1.09-.6-2.32-.56-3.47.12-3.83.64-7.67.54-11.49-.24-9.34,4.19-15.56,11.88-20.45,13.07-8.3,25.81-17.12,38.71-25.68,1.97-1.31,4.05-2.45,6.17-3.72,1.24.98,2.37,1.87,3.57,2.82,4.62-3.12,9.23-6.16,13.74-9.34,1.99-1.4,3.54-1.67,4.96,1.2-4.79,3.7-9.65,7.45-14.77,11.4,1.07.64,1.39.94,1.49.87,5.11-3.06,10.2-6.16,15.86-9.59,1.84,2.31,4,5.04,6.4,8.06-4.27,3.74-8.32,7.12-12.12,10.75-.86.82-.84,2.54-1.33,3.8-.57,1.45-.92,3.25-1.98,4.2-5.12,4.59-10.47,8.94-15.72,13.4-3.28,2.78-6.54,5.6-9.81,8.4.33.5.66,1,1,1.5,1.61.22,3.23.42,4.83.66,29.45,4.44,51.39,29.87,51.42,59.65.02,20.52,0,41.04,0,61.57,0,1.31,0,2.62,0,4.35Zm-35.98-31.12c1.22,0,1.6-.09,1.92.01,8.23,2.59,14.75-.77,20.61-6.06.93-.84,1.54-2.51,1.55-3.8.04-9.4.13-18.81-.28-28.2-.24-5.66-1.24-11.31-2.07-16.93-2.59-17.38-12.47-28.6-29.3-33.27-5.93-1.64-12.22-2.42-18.39-2.68-10.31-.43-20.65-.12-30.98-.12-.79,0-1.69.23-2.36-.07-.92-.41-1.66-1.22-2.48-1.85.86-.79,1.6-1.85,2.6-2.28.89-.38,2.08-.08,3.14-.07,5.15.02,9.53.3,14.35-4.05,10.97-9.9,23.33-18.25,35.12-27.25.49-.37.85-.91,1.39-1.49-2.6-3.06-5.05-5.95-7.51-8.85-15.77,10.3-31.4,20.26-46.68,30.71-2.33,1.6-3.9,5.31-4.47,8.31-2.23,11.82-1.14,23.44,3.71,34.57.44,1,1.32,2.43,2.14,2.54,8,1.05,15.64.21,23.05-5.19-7.86-.55-14.9-1.04-21.95-1.53,0-.44-.01-.88-.02-1.32,8.12-.72,16.24-1.61,24.37-2.09,3.26-.19,4.98-1.68,6.44-4.76-10.71-.65-21-1.27-31.3-1.9.82-.77,1.67-.95,2.52-.96,7.68-.03,15.37.15,23.04-.1,3.97-.13,7.93-1.62,11.86-1.45,10.7.46,17.99,5.87,20.65,16.46,1.12,4.44,1.4,9.09,1.97,13.66.17,1.34.03,2.72.03,4.24,4.9-2.25,9.27-4.26,13.65-6.27-5.86,6.52-15.16,8.91-19.37,17.35.54-1.77,1.07-3.55,1.61-5.32-.39-.18-.77-.36-1.16-.55-.66,1.39-1.81,2.74-1.91,4.16-.53,7.26-.82,14.54-1.14,21.81-.44,10.03-.84,20.06-1.26,30.09-.33.03-.66.06-1,.09-.5-4.73-1.01-9.46-1.53-14.37-1.57,0-2.74,0-3.92,0-13.24.01-26.54.72-39.71-.24-7.29-.53-12.14,2.22-16.59,6.79-3.12,3.2-5.65,6.99-8.44,10.51.28.38.55.77.83,1.15,1.81,0,3.62,0,5.43,0,17.08.01,34.17.03,51.25.04,12.18,0,24.37.06,36.55-.07,1.29-.01,3.49-.87,3.71-1.72,1.68-6.69,2.97-13.47,4.59-21.19-7.8,6.26-15.18,8.34-24.25,3.5Zm-79.57,23.65c-1.15,3.68.6,4.17,3.51,4.14,35.06-.33,70.12-.57,105.18-.84.66,0,1.45.17,1.95-.12.55-.32,1.16-1.09,1.16-1.67,0-.58-.61-1.51-1.14-1.66-.98-.29-2.09-.16-3.15-.16-34.53.03-69.06.06-103.6.1-1.29,0-2.58.13-3.91.2Zm41.48-121.01c4.98,1.16,5.05,1.05,7.87-1.43,4.26-3.75,8.59-7.43,12.96-11.05,5.28-4.36,10.64-8.63,15.9-12.88-.97-2.96-2.32-2.07-3.87-.86-9.77,7.66-19.58,15.28-29.35,22.95-1.12.88-2.09,1.94-3.51,3.28Z"/>
  <path class="cls-1" d="m530.02,536.49c-12.32,0-24.65-.38-36.94.12-9.52.39-17.48-7.52-14.42-18.7,9.64-35.2,18.71-70.56,27.87-105.89.92-3.53,1.26-7.28,1.35-10.94.18-7.28.17-14.57-.12-21.84-.1-2.49-.97-5.06-2.01-7.36-1.46-3.23-.97-7.25,2.29-9.57,1.94-1.39,2.01-2.66,1.53-4.62-.92-3.72-1.59-7.5-2.49-11.23-.65-2.71-.74-5.33,2.51-6.05,3.29-.73,3.78,2.23,4.44,4.45,1.17,3.93,2.37,7.86,3.17,11.88.6,3.01,1.91,4.11,5.06,4.02,8.07-.24,16.15-.04,24.23-.16,3.2-.05,5.76.87,7.27,3.8,1.44,2.8,1.27,5.48-.39,8.28-.88,1.49-1.34,3.43-1.37,5.18-.17,8.6-.89,17.29.04,25.79.95,8.61,3.37,17.08,5.55,25.51,7.62,29.45,15.41,58.85,23.14,88.27.27,1.02.5,2.06.71,3.09,1.77,8.77-3.56,15.74-12.48,15.86-12.97.17-25.95.04-38.93.04v.05Zm-1.13-128.5c.95-.63,1.83-1.62,2.87-1.84,4.01-.84,5.73-3.38,6.07-7.24.22-2.43.58-4.85.88-7.28,1.17,2.98,1.4,5.96,2.17,8.8.27,1,1.93,2.36,2.83,2.28,1.38-.13,3.79-1.32,3.82-2.13.29-7.86.17-15.74.17-23.75h-26.01c2.48,10.6,4.88,20.86,7.28,31.12,1.71,7.33,3.44,14.65,5.13,21.99,3.41,14.79,6.77,29.6,10.29,44.37.3,1.25,1.6,3.08,2.6,3.18,3.58.39,7.24.15,11.27.15-.43-1.9-.64-2.9-.88-3.9-2.69-11.17-5.35-22.34-8.1-33.49-2.37-9.61-4.75-19.23-7.36-28.78-.39-1.43-1.97-3.39-3.21-3.56-3.22-.43-6.55,0-9.8.07Zm-29.04,70.24c.28.25.56.49.84.74.79-.93,2.01-1.74,2.31-2.8,2.81-9.93,5.45-19.9,8.15-29.85,1.86-6.85,3.74-13.69,5.61-20.53.28.07.57.15.85.22-4.05,17.28-8.1,34.57-12.14,51.82h31.37c-6.75-28.74-13.38-57.02-20.15-85.86-.91,1.26-1.28,1.77-1.86,2.58-.79-4.55-1.49-8.56-2.18-12.58-.72,4.07-.55,8.04-.76,11.99-.33,6.3-.02,12.82-1.55,18.85-8.93,35.4-18.33,70.67-27.51,106-2.12,8.16,1.84,13.54,10.07,13.58,24.64.1,49.27.08,73.91.06,4.71,0,6.35-1.44,5.6-5.98-1.09-6.63-2.83-13.16-4.45-19.69-1.08-4.34-2.45-8.61-3.68-12.92-.21.06-.42.11-.64.17.82,3.95,1.64,7.9,2.46,11.85-2.3-6.17-3.81-12.52-5.55-18.81-.32-1.15-1.58-2.91-2.37-2.89-3.48.07-6.96.69-10.3,1.09-.43,5.77,2.55,7.62,7.37,7.82-1.65.21-3.3.42-6.26.8,2.12,1.96,3.54,3.27,5.03,4.64-.48.42-1.14,1-1.74,1.53.45,1.45.88,2.83,1.36,4.34,1.72.08,3.53.17,5.34.25,0,.29.01.58.02.87-1.59.39-3.19.77-4.89,1.19.15,4.98,4.62,2.46,7.37,4.4-2.37.48-4.08.83-5.91,1.2.17,1.92.77,3.86.36,5.56-.41,1.71-1.57,4.12-2.89,4.49-1.35.38-3.86-.93-4.83-2.25-1.42-1.95-2.17-4.51-2.78-6.92-2.03-8.08-3.9-16.2-5.78-24.31-.49-2.12-1.19-3.32-3.86-3.4-9.65-.29-19.3-.84-28.93-1.56-2.62-.19-3.81.48-4.47,3-1.33,5.06-2.91,10.05-4.39,15.07-.31-.08-.63-.16-.94-.24,1.24-5.33,2.57-10.65,3.64-16.01.21-1.06-.63-2.32-.98-3.49-.4.12-.8.24-1.2.36-2.95,10.22-5.91,20.44-8.86,30.66-.35-.1-.7-.2-1.06-.29,2.22-8.97,4.52-17.92,6.59-26.92.46-1.99.07-4.18.07-6.33.67-1.04,2.02-2.36,2.47-3.95,4.9-17.44,9.65-34.93,14.48-52.39,1.13-4.08,2.42-8.12,3.64-12.18.35.1.71.2,1.06.3-5.67,22.23-11.35,44.47-17.02,66.7Zm40.88-.05c.5-.3,1-.59,1.5-.89-7.82-33.14-15.64-66.27-23.53-99.39-.09-.39-1-.58-2.53-1.4,1.04,4.94,1.82,9.02,2.75,13.06,6.56,28.33,13.14,56.66,19.79,84.97.31,1.3,1.32,2.44,2.01,3.65Zm8.27-111.44c-.01-.48-.02-.95-.03-1.43-.72-.18-1.44-.5-2.16-.51-10.71-.02-21.43-.03-32.14.03-1.16,0-2.53.14-3.42.76-.94.66-1.88,1.94-1.95,3.01-.05.7,1.34,1.8,2.3,2.17,1.19.46,2.6.51,3.9.47,7.27-.23,14.53-.49,21.79-.86,1.79-.09,3.55-.67,5.32-1.02-.06-.4-.11-.8-.17-1.2h-15.97c0-.48,0-.95,0-1.43h22.53Zm-6.32,118.02c-.39.34-.78.68-1.17,1.03,1.45,5.89,2.8,11.81,4.37,17.66,1.57,5.81,2.19,11.95,5.7,17.29.86-1.51,1.42-3.04,1.09-4.36-2.43-9.75-5-19.46-7.67-29.15-.27-.96-1.52-1.65-2.32-2.47Zm-31.46-141.5c-.77.19-1.55.37-2.32.56,1.34,5.61,2.68,11.22,4.1,16.81.03.11,1.09-.05,2.1-.1-1.34-5.98-2.61-11.63-3.88-17.27Z"/>
  <path class="cls-1" d="m337.82,79.76c.11,1.83.2,3.52.33,5.64-1.84.16-3.49.31-5.52.49-.92-7.22-1.83-14.24-2.82-22.03,4.82-.3,9.4-1.12,13.88-.74,6.64.57,8.45,7.88,3.52,14.29,1.52,1.77,3.09,3.61,5.25,6.13,2.47-6.72,4.71-12.71,6.86-18.73.72-2.02,1.18-3.76,4.04-4.03,2.99-.29,3.98,1.3,5.03,3.38,3.03,5.99,6.08,11.97,9.24,18.19-3.36.38-6.01,1.01-7.66-2.71-1.01-2.28-9.94-1.24-10.71,1.18-.71,2.23-1.96,2.84-4.03,2.87-1.85.03-3.72.16-5.53.51-2.82.55-4.85-.28-6.31-2.78-1.18-2.02-2.78-3.22-5.56-1.68Zm-1.73-12.58c.46,3.36.72,5.24,1.13,8.22,2.78-1.3,4.98-2.14,6.9-3.4.4-.26.06-2.88-.44-3.07-2.16-.8-4.5-1.1-7.59-1.75Zm31.51,6.78c-1.21-2.43-2.18-4.37-3.62-7.24-1.03,3.07-1.71,5.07-2.55,7.58,2.31-.13,3.95-.22,6.17-.34Z"/>
  <path class="cls-1" d="m405.63,177.55c4.78-.32,9.36-.62,14.25-.94v-11.85h9.16v10.92h14.95v8.4c-4.58.31-9.15.63-14.06.97v11.46h-9.55c0-2.4-.12-4.99.03-7.56.16-2.66-.96-3.41-3.51-3.27-3.66.2-7.34.05-11.27.05v-8.17Z"/>
  <path class="cls-1" d="m283.94,96.64c-2.95,1.36-5.29,2.79-8.03-.19-1.9-2.06-9.86,1.23-10.14,4.13-.21,2.21-1.14,3.14-3.11,3.9-5.65,2.17-11.2,4.57-17.16,7.03-3.04-6.74-5.99-13.28-9.11-20.19,1.8-.86,3.29-1.57,5.17-2.46,2.39,5.31,4.7,10.42,7.14,15.82,3.88-1.4,7.45-2.69,11.39-4.11.43-5.39.79-11.33,1.46-17.23.13-1.11,1.27-2.62,2.29-2.97,1.39-.48,3.74-.69,4.57.12,5.28,5.15,10.26,10.61,15.53,16.16Zm-12.21-5.09c-1.87-2.1-3.29-3.7-5.34-6v7.82c1.79-.61,3.22-1.09,5.34-1.82Z"/>
  <path class="cls-1" d="m601.99,138.04c1.56,1.3,2.75,2.28,4.21,3.5-3.88,4.52-7.55,8.79-12.11,14.11,3.15,2.29,6.18,4.48,9.84,7.13,4.12-1.67,9.67-3.81,15.12-6.17,1.96-.85,3.71-1.12,4.77.89.74,1.41,1.53,3.45,1.06,4.75-2.39,6.54-5.18,12.94-7.96,19.69-2.6-1.88-5.13-3.14-3.13-6.74.37-.67-.12-2.41-.79-2.97-2.59-2.19-4.48-6.42-9.15-3.73-.37.21-1.32-.2-1.77-.59-4.87-4.25-9.7-8.55-14.84-13.12,4.9-5.57,9.67-10.98,14.75-16.76Zm17.52,24.75c-.21-.21-.43-.43-.64-.64-2.13.87-4.27,1.74-7.03,2.86,1.75,1.55,2.98,2.63,4.47,3.95,1.2-2.31,2.2-4.25,3.2-6.18Z"/>
  <path class="cls-1" d="m73.81,326.73c.07,3.18.3,5.43-3.4,6.51-1.34.39-2,4.02-2.42,6.28-.19,1.05.62,2.95,1.52,3.4,2.04,1.03,2.42,2.26,2.24,4.4-.49,5.64-.69,11.3-1.04,17.43-7.68-.41-15-.81-22.71-1.23.14-1.94.25-3.46.39-5.47,5.94.41,11.57.79,17.06,1.17,2.74-3.02-.97-8.09,4.02-10.38-5.74-3.15-11.24-6.27-16.84-9.2-2.05-1.07-2.73-2.34-2.5-4.69.25-2.49,1.77-2.91,3.65-3.36,6.55-1.57,13.09-3.18,20.03-4.88Zm-10.38,13c.19-2.08.33-3.54.49-5.33-2.36.49-4.2.86-7.04,1.45,2.55,1.51,4.33,2.57,6.55,3.89Z"/>
  <path class="cls-1" d="m642.89,196.27c-2.44.42-4.88.88-7.34,1.25-3.52.53-4.39-.52-3.21-3.94.76-2.2,1.68-4.35,1.95-7.08-2.66,2.02-5.32,4.03-8.34,6.33-1.03-1.27-2.05-2.53-3.3-4.07,5.89-4.64,11.57-9.11,17.26-13.58,3.17,1.72,3.56,3.94,2.16,6.95-1.47,3.19-2.61,6.53-3.89,9.8,5.95,1.67,12.03-4.42,17.93,1.65-6.12,4.87-11.94,9.5-18.03,14.34-1.06-1.22-1.97-2.27-3.29-3.8,2.87-2.44,5.65-4.81,8.44-7.18-.12-.22-.23-.43-.35-.65Z"/>
  <path class="cls-1" d="m105.92,236.67c-6.75-4.24-12.98-8.15-19.53-12.27,4.65-7.09,11.52-1.6,17.31-4.03-1.6-2.89-3.04-5.95-4.89-8.73-1.81-2.72-1.94-4.99.93-7.39,6.16,3.79,12.41,7.64,18.99,11.68-.92,1.5-1.73,2.8-2.79,4.51-3.35-2.12-6.5-4.11-9.65-6.1-.22.2-.44.4-.66.6,1.08,1.86,2.31,3.64,3.19,5.59.66,1.44.88,3.08,1.29,4.64-1.5.25-2.99.67-4.49.71-2.07.06-4.14-.17-6.56.62,2.96,1.79,5.91,3.59,9.4,5.7-.75,1.32-1.54,2.7-2.55,4.48Z"/>
  <path class="cls-1" d="m279.24,75.09c4.43-1.17,8.21-2.35,12.07-3.16,6.37-1.34,9.55,2.29,7.63,8.89.7.42,1.52.8,2.22,1.34,3.71,2.85,3.29,8.17-1.1,9.89-4.63,1.82-9.52,2.96-14.76,4.54-2.06-7.32-4.01-14.22-6.07-21.5Zm8.99,11.09c.53,1.75.92,3.05,1.39,4.63,2.23-.64,4.21-.96,5.94-1.8.97-.47,1.51-1.81,2.25-2.76-1.18-.53-2.38-1.52-3.55-1.49-1.78.04-3.54.79-6.03,1.42Zm-.78-4.12c1.83-.59,3.54-.9,4.99-1.7.81-.44,1.17-1.69,1.73-2.58-.91-.46-1.9-1.41-2.73-1.28-1.84.27-3.6,1.08-5.64,1.75.67,1.55,1.12,2.58,1.65,3.81Z"/>
  <path class="cls-1" d="m676.17,514.34c-.79,3.3-2.46,4.51-5.48,4.57-3.63.08-7.25.75-11.11,2.11,2.98,1.72,5.97,3.43,9.37,5.39-.93,1.61-1.74,3.02-2.75,4.78-6.64-3.77-13.02-7.39-19.88-11.28,4.03-7.13,11.51-3.18,16.91-6.3-3.08-1.73-6.07-3.4-9.44-5.3.91-1.66,1.68-3.08,2.63-4.81,6.76,3.71,13.21,7.25,19.75,10.84Z"/>
  <path class="cls-1" d="m58.57,448.89c-2.82-8.26,6.08-10.13,7.82-15.78-3.71.68-7.3,1.35-11.11,2.05-.44-1.69-.8-3.05-1.29-4.96,7.33-1.65,14.47-3.26,22.16-5,2.53,7.91-5.9,10.02-7.76,15.75,3.52-.71,7.02-1.41,10.98-2.2.4,1.58.79,3.15,1.3,5.13-7.52,1.7-14.67,3.32-22.1,5Z"/>
  <path class="cls-1" d="m679.11,509.94c-7.05-3.33-13.59-6.41-20.56-9.7,3.27-7.77,11.4-3.76,16.57-7.53-3.47-1.58-6.77-3.09-10.52-4.79.8-1.54,1.56-2.99,2.52-4.83,6.92,3.13,13.69,6.2,20.81,9.42-3.22,7.66-10.85,4.32-16.41,7.54,3.38,1.81,6.48,3.47,9.91,5.32-.76,1.49-1.45,2.85-2.32,4.57Z"/>
  <path class="cls-1" d="m693.23,295.39c-3.86.98-7.39,1.87-11.2,2.83-.53-1.77-.98-3.24-1.54-5.12,7.24-1.77,14.23-3.47,21.64-5.28,3.2,7.76-5.47,9.98-6.75,15.95,3.44-.84,6.78-1.65,10.57-2.57.52,1.63,1.02,3.19,1.69,5.3-7.46,1.72-14.6,3.36-22.32,5.14-2.11-7.85,6.15-10.11,7.92-16.25Z"/>
  <path class="cls-1" d="m183.48,148.37c-4.59-6.07-8.89-11.75-13.64-18.04,4.03-2.52,7.69-5.37,11.8-7.25,5.32-2.44,10.51-.35,13.66,4.69,2.86,4.57,2.08,9.57-2.15,13.62-.86.82-1.79,1.58-2.76,2.26-2.15,1.51-4.34,2.96-6.91,4.71Zm1.51-7.47c.57.12,1.14.23,1.7.35,1.58-2.52,4.24-4.98,4.39-7.58.11-1.94-2.74-5.35-4.78-5.8-2.56-.56-5.64,1.22-9.38,2.23,3.24,4.34,5.65,7.57,8.05,10.79Z"/>
  <path class="cls-1" d="m556.1,105.92c3.68,2.38,7.14,4.3,10.25,6.69,4.92,3.79,5.73,8.84,2.66,14.01-3.13,5.26-8.8,7.26-14.29,4.63-3.54-1.69-6.82-3.94-10.59-6.17,4.02-6.43,7.82-12.52,11.98-19.17Zm-4.43,17.61c2.75,2.59,5.72,4.93,9.2,2.94,1.93-1.1,3.87-3.92,3.98-6.07.2-3.84-3.07-5.69-6.58-7.11-2.26,3.5-4.39,6.8-6.61,10.24Z"/>
  <path class="cls-1" d="m670.74,215.58c3.26,6.08,8.5,11.1,5.54,18.69-1.53,3.92-6.05,6.62-10.87,6.54-9.07-.15-10.96-7.84-14.89-14.21,6.73-3.67,13.25-7.22,20.22-11.02Zm-12.85,13.37c.9,1.55,1.44,2.74,2.21,3.75,2.46,3.21,6.65,3.75,9.73,1.33,2.76-2.16,3.18-6.04.72-9.13-.57-.72-2.3-1.26-3.08-.92-3.11,1.35-6.04,3.09-9.58,4.97Z"/>
  <path class="cls-1" d="m139.15,582.48c-2.73-2.64-5.39-4.84-7.61-7.42-3.74-4.35-3.53-10.52.18-14.43,4.07-4.29,10.85-4.98,15.4-1.38,3.09,2.45,5.96,5.17,9.3,8.1-6.32,5.54-11.74,10.28-17.27,15.13Zm8.71-15.01c-4.17-6.41-9.6-7.01-12.96-1.69-1.79,2.84-.84,5.4,1.45,7.34.9.76,3.01,1.32,3.76.8,2.78-1.9,5.22-4.29,7.75-6.46Z"/>
  <path class="cls-1" d="m689.97,402.49c7.76,1.11,14.9,2.13,22.78,3.26-.9,4.38-1.31,8.46-2.61,12.24-1.88,5.46-6.98,7.8-12.79,6.52-5.82-1.28-9.07-5.12-8.8-10.95.16-3.52.88-7.02,1.43-11.08Zm16.79,7.89c-4.42-.66-8.41-1.25-12.5-1.85-1.15,3.43-1.64,6.81,1.16,8.68,2,1.33,5.29,1.87,7.63,1.28,3.52-.89,3.35-4.54,3.7-8.1Z"/>
  <path class="cls-1" d="m315.48,89.15c-6.56-.01-11.5-4.96-11.51-11.52-.01-6.38,5.65-11.49,12.67-11.45,6.5.04,11.38,4.99,11.47,11.64.09,6.45-5.37,11.35-12.63,11.33Zm6.74-11.46c-.08-4.06-2.54-6.5-6.41-6.4-3.82.1-6.12,2.53-5.98,6.32.14,3.76,2.93,6.58,6.52,6.6,3.47.02,5.95-2.73,5.87-6.52Z"/>
  <path class="cls-1" d="m410.24,84.13c-7.48-.08-12.37-4.92-12.21-12.07.14-6.42,5.27-11.06,12.07-10.92,7.15.14,12.04,4.82,11.97,11.47-.07,6.95-4.84,11.6-11.83,11.53Zm6.04-11.82c0-3.68-2.65-6.35-6.23-6.31-3.62.05-6.31,3.02-6.21,6.84.09,3.68,2.79,6.46,6.22,6.41,3.43-.04,6.23-3.17,6.22-6.95Z"/>
  <path class="cls-1" d="m440.65,81.97c-.5,1.81-.96,3.44-1.47,5.28-1.71-.31-3.22-.59-5.37-.99,1.27-7.01,2.51-13.91,3.91-21.67,4.56.98,9.04,1.69,13.36,2.95,5.16,1.51,7,10.65-.93,14.82.93,2.23,1.88,4.49,2.96,7.08-3.41.21-5.98-.2-7.23-3.77-.76-2.15-1.61-4.73-5.23-3.71Zm5.44-2.5c1.8-2.39,3.67-3.74,3.72-5.16.1-3-2.55-3.5-5.02-3.7-3.16-.26-3.14,2.39-2.77,3.97.35,1.5,2.13,2.67,4.08,4.89Z"/>
  <path class="cls-1" d="m51.7,416.76c-.51-3.52-1.11-6.61-1.39-9.73-.54-6.05,3.04-10.95,8.55-11.95,6.88-1.25,12.1,1.75,13.64,8.19.82,3.42,1.07,6.97,1.66,10.98-7.57.85-14.71,1.65-22.46,2.51Zm4.3-5.96c4.4-.45,8.38-.86,12.44-1.28.1-3.84-.08-7.41-3.71-8.37-2.35-.62-5.63-.18-7.69,1.09-3.03,1.86-2.14,5.22-1.04,8.57Z"/>
  <path class="cls-1" d="m93.69,247.56c1.56.92,3.11,1.83,4.95,2.92-.75,1.63-1.43,3.12-2.3,5.02-6.85-3.48-13.38-6.8-20.3-10.32,1.75-3.39,3.15-6.64,5.01-9.6,3.09-4.91,10.98-5.19,13.46,0,2.05,4.31,4.57,3.75,7.86,3.05.6-.13,1.25-.02,1.91-.02-.41,3.67-1.84,5.66-5.83,5.47-1.69-.08-3.44,1.24-5.17,1.92.14.52.27,1.04.41,1.55Zm-5.21-1.54c1.04-2.14,2.39-3.64,2.17-4.85-.25-1.36-1.92-2.46-2.98-3.67-1.44,1.28-2.88,2.55-4.32,3.83,1.44,1.32,2.88,2.64,5.12,4.69Z"/>
  <path class="cls-1" d="m683.61,485.5c-6.86.03-12.4-4.98-12.4-11.21,0-6.19,5.11-11.33,11.33-11.42,6.83-.09,12.5,4.88,12.63,11.06.13,6.25-5.16,11.54-11.56,11.57Zm6.32-10.77c.08-3.24-3.37-6.37-7.17-6.51-3.48-.13-6.34,2.42-6.3,5.62.04,3.26,3.17,6.05,6.94,6.21,3.71.15,6.45-2.08,6.53-5.31Z"/>
  <path class="cls-1" d="m121.89,528.66c2.97,2.37,3.59,4.86,1.95,8.17-.7,1.41-.34,3.34-.47,5.04.44.13.88.26,1.32.39,1.66-1,3.31-2,5.29-3.2.99,1.26,2,2.54,3.23,4.11-6.24,4.36-12.19,8.51-18.89,13.2-2.46-3.84-5.27-7.33-7.06-11.28-1.82-4.02,1.81-9.54,6.46-9.14,5.26.46,6.21-2.51,7.41-6.07.12-.36.41-.66.76-1.23Zm-6.17,10.97c-1.65,1.9-3.63,3.25-3.45,4.19.32,1.68,1.94,3.12,3.02,4.66,1.6-1.18,3.19-2.37,4.79-3.55-1.26-1.52-2.51-3.05-4.36-5.29Z"/>
  <path class="cls-1" d="m692.05,376.75c-1.09-3.15-.32-5.39,2.85-7.03,1.44-.74,2.4-2.41,3.57-3.66l-.73-1.08c-1.9-.15-3.81-.3-5.94-.47v-5.1h22.5c0,3.72.4,7.56-.1,11.28-.72,5.37-6.42,8.33-11.16,5.32-3.77-2.39-6.39-1.89-9.43.49-.29.23-.73.29-1.11.39-.11.03-.25-.08-.46-.15Zm9.71-12.01c1.07,2.54,1.53,4.62,2.74,6.06.54.64,3.36.49,3.84-.21,1.04-1.51,1.24-3.6,1.9-5.85h-8.48Z"/>
  <path class="cls-1" d="m85.85,460.89c-.08,6.07-5.35,10.92-11.83,10.87-6.42-.06-11.72-5.32-11.68-11.61.03-6.19,5.42-11.09,12.15-11.06,6.38.03,11.45,5.29,11.36,11.81Zm-12.13,5.4c3.88.05,7.22-2.71,7.19-5.93-.03-3.24-2.49-5.7-5.83-5.81-4.04-.14-7.47,2.56-7.6,5.98-.13,3.24,2.55,5.71,6.24,5.76Z"/>
  <path class="cls-1" d="m86.44,279.18c-.61,1.87-1.13,3.45-1.69,5.16-2.93-.83-5.56-1.58-8.62-2.45-.89,2.59-1.72,4.99-2.61,7.59,3.01,1.06,5.58,1.97,8.53,3.01-.44,1.65-.83,3.1-1.34,5.01-7.31-2.31-14.31-4.53-21.8-6.9.57-1.66,1.04-3.06,1.61-4.72,2.78.7,5.28,1.33,8.16,2.06.86-2.57,1.64-4.88,2.57-7.67-2.78-1.03-5.31-1.96-8.17-3.01.46-1.53.89-2.97,1.45-4.82,7.4,2.27,14.52,4.46,21.91,6.74Z"/>
  <path class="cls-1" d="m519.27,102.07c-3.34-1.15-6.06-2.09-9.03-3.11-.56,1.31-1,2.34-1.59,3.72,3.57,1.52,6.93,2.95,10.56,4.5-.54,1.43-.99,2.6-1.64,4.31-5.5-2.27-10.78-4.45-16.22-6.69,2.99-6.96,5.79-13.5,8.78-20.47,5.22,2.14,10.28,4.21,15.61,6.39-.66,1.53-1.16,2.68-1.75,4.03-3.64-1.33-7.07-2.58-10.42-3.8-2.31,2.89-.89,3.98,1.5,4.82,1.97.69,3.88,1.56,6.1,2.47-.69,1.39-1.26,2.52-1.91,3.82Z"/>
  <path class="cls-1" d="m203.52,134.64c-4.05-6.39-7.91-12.49-12.06-19.05,4.73-2.92,9.27-5.73,14.2-8.78.89,1.28,1.66,2.4,2.6,3.75-3.16,2.03-6.1,3.92-9,5.78q1.5,3.2,10.16-1.17c.7,1.08,1.42,2.21,2.24,3.48-2.86,1.79-5.4,3.38-8.19,5.13.92,1.35,1.63,2.38,2.45,3.59,3.4-1.99,6.55-3.84,9.88-5.8.83,1.29,1.53,2.37,2.48,3.85-4.95,3.09-9.71,6.06-14.77,9.22Z"/>
  <path class="cls-1" d="m564.58,138.06c4.68-6.21,9.03-11.99,13.55-18,4.62,3.17,9.03,6.19,13.68,9.38-.93,1.37-1.65,2.41-2.54,3.72-3.2-2.06-6.18-3.97-9.38-6.03-.73.97-1.41,1.87-2.31,3.07,2.56,1.88,4.97,3.66,7.72,5.68-.72,1.15-1.38,2.2-2.28,3.63-2.71-1.77-5.2-3.41-8.07-5.29-.81,1.04-1.64,2.1-2.69,3.44,3.17,2.28,6.03,4.34,9.12,6.56-.84,1.25-1.55,2.3-2.58,3.83-4.63-3.25-9.11-6.4-14.21-9.98Z"/>
  <path class="cls-1" d="m659.85,215.35c-1.36.91-2.44,1.62-3.88,2.58-1.77-2.5-3.48-4.92-5.17-7.31-3.4.99-3.87,2.67-1.94,5.25,1.33,1.79,2.52,3.68,4.01,5.89-1.33.85-2.48,1.57-3.88,2.46-3.14-4.59-6.09-8.92-9.24-13.52,6.45-4.15,12.64-8.12,19.3-12.41,3,4.46,5.91,8.77,9.02,13.39-1.39.92-2.55,1.69-3.95,2.61-1.95-2.91-3.77-5.61-5.74-8.54-1.29.74-2.38,1.36-3.69,2.11,1.75,2.55,3.31,4.83,5.14,7.5Z"/>
  <path class="cls-1" d="m153.98,161.63c1.01,1.1,1.81,1.95,2.9,3.14,2.87-2.46,5.63-4.82,8.67-7.43,1.02,1.07,1.97,2.07,3.22,3.39-4.23,3.79-8.22,7.37-12.61,11.31-5.2-5.46-10.24-10.75-15.47-16.25,4.29-3.97,8.13-7.54,12.46-11.55.98,1.17,1.8,2.15,2.88,3.43-2.77,2.5-5.38,4.85-7.92,7.14q2.6,3.3,10.16-2.99c.77.91,1.59,1.88,2.73,3.23-2.35,2.19-4.51,4.22-7.03,6.56Z"/>
  <path class="cls-1" d="m472.48,95.08c-5.94-1.59-11.14-2.97-16.71-4.46,1.86-7.22,3.64-14.17,5.51-21.42,5.59,1.4,10.8,2.71,16.3,4.1-.39,1.5-.7,2.7-1.09,4.21-3.72-.86-7.24-1.67-10.72-2.47q-.92,2.93,8.08,6.54c-.04.69-.02,1.46-.15,2.2-.11.61-.42,1.18-.71,1.98-3.18-.85-6.19-1.66-9.49-2.54-.37,1.53-.66,2.74-1.02,4.23,3.79,1.1,7.3,2.11,11.2,3.24-.41,1.52-.76,2.81-1.18,4.4Z"/>
  <path class="cls-1" d="m133.85,195.47c-1.9,2.85-2.89,5.44-6.7,4-2.03-.77-6.76,5.61-6.13,7.88q1.14,4.15-1.73,7.55c-3.94-6.43-7.91-12.74-11.66-19.19-.46-.79-.09-2.66.59-3.36,1.04-1.06,2.85-2.36,4.04-2.11,7.07,1.47,14.05,3.35,21.59,5.23Zm-16.11,6.89c1.26-1.9,2.07-3.12,3.15-4.74-2.56-.74-4.48-1.29-7.55-2.18,1.77,2.78,2.87,4.5,4.41,6.92Z"/>
  <path class="cls-1" d="m654.31,548.73c-1.42-1.13-2.41-1.92-3.64-2.9,1.8-2.82,3.49-5.46,5.29-8.28-1.1-.72-2.06-1.34-3.35-2.18-1.63,2.4-3.16,4.65-4.88,7.18-1.3-.75-2.48-1.44-3.83-2.23,1.67-2.58,3.14-4.87,4.74-7.35-1.23-.82-2.29-1.53-3.68-2.46-2,2.77-3.9,5.4-6.03,8.33-1.36-.88-2.61-1.69-4.06-2.62,3.16-4.48,6.11-8.67,9.25-13.13,6.38,4.16,12.63,8.24,19.38,12.64-3.02,4.27-5.94,8.4-9.2,13.01Z"/>
  <path class="cls-1" d="m95.4,256.11c-.56,3.14-.95,5.31-4.79,5.86-1.73.24-3.27,3.49-4.37,5.64-.41.8.27,2.84,1.1,3.5,3.24,2.58.24,4.25-.31,7.2-6.18-5.77-11.84-10.85-17.23-16.19-1.72-1.71.68-5.95,3.29-5.97,7.35-.08,14.71-.03,22.31-.03Zm-18.11,4.9c-.14.33-.29.67-.43,1,1.56,1.37,3.12,2.74,5.1,4.47.63-2,1.06-3.37,1.59-5.03-2.47-.17-4.36-.31-6.26-.44Z"/>
  <path class="cls-1" d="m689.8,252.24c-1.68.82-2.72,1.34-4.12,2.02-1.54-3.01-3.02-5.9-4.67-9.15-1.2.4-2.35.79-3.73,1.25,1.27,2.99,2.39,5.63,3.61,8.47-1.22.58-2.26,1.08-3.62,1.74-1.41-2.6-2.77-5.11-4.28-7.88-1.27.44-2.45.86-4.17,1.46,1.59,3.4,3.07,6.54,4.62,9.85-1.39.64-2.56,1.17-4.28,1.96-2.27-4.84-4.48-9.56-6.93-14.78,6.93-3.13,13.61-6.15,20.72-9.37,2.3,4.83,4.49,9.44,6.85,14.42Z"/>
  <path class="cls-1" d="m619.02,581.64c-1.72-1.57-2.58-2.34-3.78-3.43-1.88,2.21-3.66,4.3-5.61,6.59-1.52-1.41-2.56-2.37-3.8-3.52,2-1.91,3.9-3.72,6.17-5.88-.94-1.01-1.85-1.99-3-3.23-2.77,2.5-5.28,4.78-7.99,7.23-1.06-.93-2.03-1.77-2.71-2.37,3.73-4.02,7.35-7.93,11.15-12.03,5.47,5.05,10.79,9.95,16.05,14.81-3.85,3.95-7.49,7.68-11.31,11.6-1-.91-1.94-1.78-3.18-2.91,2.65-2.27,5.13-4.4,8.02-6.87Z"/>
  <path class="cls-1" d="m708.63,311.45c1,5.19,1.91,9.95,2.9,15.14-1.62.34-2.95.62-4.52.95-.72-3.38-1.37-6.44-2.08-9.76-1.31.13-2.42.25-3.81.39.38,3.01.72,5.73,1.12,8.88-1.19.27-2.39.55-3.62.84-1.08-2.99-1.98-5.76-3.17-8.4-.13-.29-1.92.17-3.27.32.38,3.6.73,6.95,1.1,10.51-1.42.23-2.54.41-4.12.67-1.01-5.19-1.99-10.18-3.07-15.72,7.58-1.28,14.91-2.53,22.53-3.82Z"/>
  <path class="cls-1" d="m100.97,537.8c-3.11-4.59-5.91-8.71-8.85-13.04,1.37-.92,2.54-1.7,3.29-2.2,4.33.94,3.09,9.28,10.44,6.38-1.77-2.69-3.26-4.96-5-7.61,1.07-.78,2.16-1.58,3.49-2.56,1.79,2.63,3.4,5,5.21,7.65,1.25-.72,2.32-1.35,3.8-2.21-1.93-3.13-3.7-6-5.64-9.14,1.37-.83,2.55-1.56,3.96-2.41,2.87,4.45,5.58,8.67,8.64,13.43-6.36,3.85-12.62,7.64-19.34,11.71Z"/>
  <path class="cls-1" d="m474.68,93.75c.91-1.36,1.69-2.53,2.49-3.73,2.46,1.48,4.7,3.07,7.17,4.18.93.42,2.36-.28,3.57-.47-.52-1.06-.81-2.37-1.62-3.11-1.45-1.32-3.56-2.01-4.76-3.49-1.28-1.57-2.94-4.18-2.41-5.55.82-2.09,3.12-4.46,5.24-5.01,4.9-1.27,9.25.78,13.13,4.45-.98,1.18-1.87,2.25-2.68,3.22-2.42-1.14-4.47-2.33-6.67-3.04-.86-.27-2.07.54-3.11.86.45.89.69,2.03,1.39,2.62,1.41,1.17,3.11,1.99,4.62,3.04,2.33,1.63,3.86,3.8,2.96,6.75-.95,3.1-3.3,4.82-6.55,4.76-4.93-.09-9.21-1.86-12.76-5.48Z"/>
  <path class="cls-1" d="m225.12,97.84c.18,1.89.29,3.03.43,4.4-2.16.68-4.36,1.1-6.28,2.08-.96.49-1.41,1.98-2.09,3.02,1.14.32,2.3.96,3.42.9,1.83-.08,3.63-.62,5.44-.96,2.85-.54,5.27-.03,6.69,2.82,1.4,2.81,1.24,5.97-1.14,7.6-3.36,2.3-7.26,4.27-11.2,5.11-3.38.72-2.1-2.58-2.24-4.53,2.11-.36,4.11-.44,5.91-1.1,1.6-.58,2.96-1.8,4.43-2.74-.11-.48-.22-.95-.33-1.43-1.89,0-3.84-.32-5.66.06-6.42,1.32-9.51.44-10.74-3.41-1.26-3.96,1.36-8.04,6.75-10.13,1.92-.74,4.01-1.04,6.59-1.68Z"/>
  <path class="cls-1" d="m691.51,383.16c.15-1.53.29-3.07.5-5.21,7.12,3.23,13.86,6.17,20.45,9.41.87.43,1.36,2.38,1.33,3.61-.02,1.04-.85,2.68-1.69,2.97-6.98,2.38-14.05,4.5-21.29,6.76-.7-3.19-.27-4.95,2.73-6.63,1.53-.86,2.04-4.48,2-6.83-.02-1.39-2.03-2.75-3.15-4.12-.3.02-.59.03-.89.05Zm14.73,7.47c.02-.31.04-.62.05-.93-1.91-.81-3.82-1.62-6.1-2.58v5.36c2.24-.69,4.14-1.27,6.04-1.86Z"/>
  <path class="cls-1" d="m71.13,310.71c2.09.68,3.82,1.24,5.85,1.9-.38,1.62-.72,3.1-1.18,5.05-7.37-1.72-14.5-3.38-22.14-5.16,1.14-4.22,1.9-8.11,3.26-11.77,1.34-3.6,5.05-4.98,8.92-3.9,4.31,1.21,6.7,4.52,6.26,8.87-.16,1.56-.59,3.09-.98,5.01Zm-3.93-.56c-.4-2.91-.42-5.18-1.17-7.17-.22-.58-3.18-1-3.77-.4-1.29,1.32-1.86,3.33-2.93,5.47,2.82.75,4.79,1.28,7.87,2.1Z"/>
  <path class="cls-1" d="m48.71,391.08c-.23-4.72-.46-9.55-.71-14.73,1.52-.09,2.76-.16,4.33-.25.24,3.38.45,6.51.7,10.04,1.34.07,2.55.13,4.07.21v-8.92c1.47-.08,2.68-.14,3.28-.17,3.03,2.66-1.92,9.4,5.86,8.89v-10.64c1.47-.06,2.72-.12,4.37-.19.3,5.21.59,10.15.92,15.75h-22.81Z"/>
  <path class="cls-1" d="m140.68,178.36h4.38c.53,6.8-4.16,12.46-10.56,12.99-6.1.51-12.34-4.46-13-10.35-.75-6.66,3.8-11.84,11.72-13.05.27,1.35.55,2.72.87,4.3-3.91,1.47-7.82,2.96-6.95,8.1.51,3.01,4.28,5.68,7.38,5.54,3.21-.15,5.08-2.33,6.15-7.54Z"/>
  <path class="cls-1" d="m690.81,273.63c.81-7.2-1.53-10.46-6.93-9.1-2.07.52-4.58,2.53-5.25,4.43-.58,1.64.59,4.76,2.04,6.05,2.03,1.81,1.61,3.35.35,4.58-.58.57-2.9.16-3.85-.56-4.45-3.39-5.48-10.28-2.5-15.01,2.92-4.64,10.01-6.67,15.09-4.32,5.21,2.41,8.1,8.7,6.4,13.92-.82,2.51-1.49,2.53-5.37.02Z"/>
  <path class="cls-1" d="m84.64,501.25c1.4,1.84,3.2,3.14,3.33,4.6.34,3.72,1.8,6.17,5.55,6.52,3.42.32,6.36-1.05,7.57-4.49,1.29-3.67-.54-6.06-3.86-7.55-.23-.11-.42-.31-.89-.65.28-1.11.59-2.32.88-3.5,4.68.05,7.8,2.65,9.05,7.37,1.35,5.09-.22,9.36-4.46,12.08-4.82,3.08-10.8,2.9-14.8-.45-3.9-3.26-5.01-8.1-2.38-13.93Z"/>
  <path class="cls-1" d="m526.19,95.8c.64-1.3,1.21-2.46,2-4.06,5.63,2.73,11.16,5.41,16.97,8.23-.49,1.38-.91,2.56-1.53,4.28-2.12-.87-4.01-1.64-6.28-2.57-2.55,4.97-5.11,9.98-7.91,15.44-1.57-.67-3.07-1.31-5.1-2.19,2.57-5.31,5.02-10.34,7.6-15.67-1.87-1.13-3.74-2.26-5.75-3.47Z"/>
  <path class="cls-1" d="m383.83,82.45v-17.11c-2.32-.14-4.25-.25-6.5-.39v-4.34h18.92c.1,1.38.2,2.64.32,4.33-2.24.14-4.29.27-6.91.43v17.08h-5.82Z"/>
  <path class="cls-1" d="m714.32,355.26c-1.66.2-2.81.34-4.32.53-.39-1.85-.75-3.6-1.22-5.86-5.84.37-11.67.74-17.81,1.13-.1-1.83-.18-3.33-.28-5.05,5.95-.61,11.56-1.19,17.45-1.8v-6.21c1.64-.11,3.01-.2,4.73-.31.49,5.94.95,11.54,1.45,17.58Z"/>
  <path class="cls-1" d="m697.78,454.14c.39-1.99.7-3.52,1.1-5.56-5.59-1.53-11.11-3.05-17.05-4.67.46-1.68.86-3.12,1.34-4.87,3.99.93,7.71,1.77,11.41,2.66q5.68,1.36,7.73-4.32c1.3.28,2.65.57,4.53.97-1.57,5.78-3.06,11.3-4.65,17.14-1.65-.51-2.86-.88-4.41-1.35Z"/>
  <path class="cls-1" d="m97.66,487.72c-5.7,2.41-10.9,4.6-16.4,6.93.73,1.95,1.41,3.75,2.19,5.83-1.22.52-2.36,1.02-3.85,1.66-2.58-5.24-5.06-10.29-7.72-15.67,1.45-.79,2.66-1.44,4.06-2.21,1.09,1.83,2.08,3.5,3.24,5.45,5.4-2.25,10.7-4.46,16.36-6.82.73,1.67,1.34,3.07,2.11,4.83Z"/>
  <path class="cls-1" d="m621.78,552.04c5.9,5.08,11.39,9.81,17.1,14.71-1.19,1.42-2.18,2.59-3.49,4.15-4.54-3.81-8.95-7.5-13.61-11.41-2.35,2.22-4.62,4.38-7.09,6.72-1.17-1.05-2.21-1.99-3.35-3.01,3.53-3.77,6.84-7.33,10.44-11.17Z"/>
  <path class="cls-1" d="m633.45,545.85c-2.22,2.55-4.19,4.82-6.38,7.33-1.24-.86-2.37-1.65-3.8-2.63,3.3-4.06,6.41-7.89,9.72-11.96,6.13,4.61,12.08,9.09,18.28,13.76-1.22,1.54-2.17,2.74-3.31,4.17-4.84-3.55-9.49-6.96-14.52-10.65Z"/>
  <path class="cls-1" d="m423.92,85.04c1.01-7.58,1.94-14.57,2.9-21.83,2.06.23,3.69.41,5.82.64-.93,7.39-1.83,14.49-2.78,21.98-2.08-.28-3.83-.52-5.94-.8Z"/>
  <path class="cls-1" d="m149.47,178.86c-5.22-5.46-10.21-10.68-15.72-16.44.76-.59,2.07-1.61,3.64-2.83,5.21,4.89,10.48,9.83,15.95,14.96-1.3,1.45-2.5,2.78-3.87,4.31Z"/>
  <path class="cls-1" d="m686.1,425.35c7.63,1.53,14.72,2.96,22.28,4.48-.28,1.79-.53,3.4-.87,5.53-7.59-1.56-14.86-3.05-22.46-4.62.37-1.88.66-3.37,1.05-5.4Z"/>
  <path class="cls-1" d="m701.07,458.62c-.6,1.89-1.07,3.36-1.68,5.3-7.21-2.17-14.21-4.27-21.66-6.51.45-1.84.83-3.41,1.3-5.36,7.48,2.23,14.62,4.36,22.04,6.57Z"/>
  <path class="cls-1" d="m89.95,470.2c.73,1.76,1.32,3.18,2.11,5.08-7.09,2.63-13.94,5.17-21.2,7.86-.69-1.59-1.35-3.1-2.19-5.03,7.1-2.64,13.92-5.17,21.28-7.91Z"/>
  <path class="cls-1" d="m679.42,289.41c-.66-1.86-1.17-3.32-1.87-5.28,7.29-2.19,14.29-4.29,21.67-6.5.51,1.81.93,3.28,1.49,5.27-7.03,2.15-13.91,4.26-21.29,6.52Z"/>
  <path class="cls-1" d="m121.59,564.23c-1.31-1.58-2.3-2.76-3.57-4.29,6.02-4.6,11.82-9.03,17.87-13.66,1.21,1.39,2.21,2.55,3.52,4.05-5.92,4.61-11.67,9.1-17.82,13.89Z"/>
  <path class="cls-1" d="m174.27,162.22c-2.29-1.85-3.93-2.92-5.22-4.31-.9-.97-1.82-2.39-1.79-3.58.02-.88,1.44-2.27,2.44-2.48,2.87-.61,4.42,1.32,4.99,3.81.52,2.28,2.84,5.12-.42,6.56Z"/>
  <path class="cls-2" d="m444.86,654.73c2.69-12.88,5.33-25.77,8.08-38.63,1.49-6.98,2.96-13.98,4.81-20.87,1.63-6.06,5.79-8.06,13.53-7.11,5.55.68,8.65,3.96,8.95,9.83,1.12,22.48,2.25,44.95,3.11,67.44.12,3.14-.72,6.6-2.1,9.43-1.62,3.31-5.02,4.8-8.77,3.88-3.53-.87-4.42-3.9-4.57-7.11-.82-17.45-1.6-34.9-2.91-52.49-1.3,6.17-2.6,12.34-3.89,18.51-2.66,12.68-5.27,25.37-8.02,38.04-.47,2.16-.99,4.79-2.46,6.14-1.96,1.8-4.91,3.55-7.36,3.45-1.93-.08-4.31-2.68-5.45-4.74-1.51-2.71-2.08-5.96-2.91-9.02-4.36-16.08-8.66-32.17-13-48.26-.19-.71-.52-1.39-.15-1.96,0,13.32-.03,26.65.01,39.97.02,5.82.31,11.65.23,17.47-.03,2.19-.45,4.52-1.29,6.54-1.34,3.23-4.06,4.84-7.62,4.58-3.5-.26-5.49-2.42-6.28-5.68-.4-1.66-.65-3.39-.68-5.09-.47-25.94-.96-51.89-1.31-77.83-.14-10.65,6.36-15.32,16.74-12.31,3.8,1.1,5.24,4.21,6.21,7.62,3.46,12.21,6.87,24.43,10.32,36.65,2.04,7.22,4.13,14.42,6.19,21.63l.6-.08Z"/>
  <path class="cls-2" d="m287.27,647.44c0,8.05.17,15.44-.05,22.81-.19,6.12-2.43,9.01-6.52,9.38-4.69.42-8.9-2.85-10.09-8.26-.51-2.29-.5-4.73-.42-7.09.7-20.88,1.44-41.77,2.24-62.65.08-2.09.34-4.25.97-6.23,1.09-3.45,3.56-5.67,7.3-5.67,9.65-.02,19.34-.31,28.96.33,13.2.89,20.77,8.28,22.93,21.58,1.42,8.76,1.1,17.41-3.13,25.52-4.19,8.03-10.9,12.11-19.87,12.09-4.74,0-9.49-.71-14.23-1.11-2.22-.18-4.44-.38-8.08-.7Zm2.05-41.75v25.15c5.73.3,11.64.87,17.54.82,4.38-.04,7.58-3.05,8.4-7.65.52-2.93.58-6.07.19-9.02-.64-4.88-4.16-8.1-9.08-8.5-5.4-.44-10.82-.52-17.05-.8Z"/>
  <path class="cls-2" d="m197.02,618c0-6.75-.06-13.5.02-20.25.07-6.13,2.63-8.88,8.63-8.95,7.81-.09,15.63-.15,23.42.23,16.52.8,26.37,9.21,30.13,25.3,2.73,11.67,2.13,23.17-2.44,34.26-4.33,10.49-12.37,14.75-23.54,12.88-11.14-1.87-21.06-6.92-30.72-12.43-3.79-2.16-5.52-5.99-5.56-10.39-.05-6.88-.01-13.76-.01-20.64.02,0,.05,0,.07,0Zm17.45-16.55c-.34.93-.5,1.17-.51,1.41-.26,8.59-.61,17.18-.73,25.77-.2,14.59.26,15.07,14.91,17.62,6.18,1.08,10.37-.86,12.77-6.68,3.67-8.91,3.6-18.11.3-27.08-2.07-5.61-6.59-8.93-12.51-9.81-4.68-.69-9.44-.84-14.22-1.23Z"/>
  <path class="cls-2" d="m343.83,638.15c0-12.18-.07-24.36.05-36.54.03-2.74.32-5.6,1.18-8.18,1.18-3.56,4.2-4.91,7.86-4.8,3.46.11,5.88,1.92,6.79,5.12.75,2.63,1.1,5.46,1.09,8.21-.08,21.32-.2,42.63-.56,63.95-.06,3.77,1.11,4.69,4.67,4.61,7.94-.18,15.89.02,23.83.13,6.21.09,9,3.08,8.99,9.49,0,6.56-2.74,9.71-8.79,9.71-11.25,0-22.51,0-33.76-.34-8.39-.26-11.97-3.97-12.09-12.45-.19-12.97-.05-25.95-.05-38.92.26,0,.53,0,.79,0Z"/>
  <path class="cls-2" d="m512.09,603.41c-5.7.31-10.84.68-15.98.84-6.2.2-9.59-4.01-8.14-10.07.84-3.53,3.49-4.81,6.83-4.89,7.68-.2,15.36-.35,23.04-.48,8.21-.15,16.42-.26,24.63-.37,1.06-.02,2.12-.02,3.18.04,4.75.25,7.46,2.33,7.65,5.84.2,3.66-2.12,6.13-6.84,6.7-4.07.49-8.18.54-12.28.82-1.55.1-3.08.3-4.99.49.47,10.75.94,21.18,1.38,31.61.24,5.69.59,11.38.57,17.07-.01,5.59-3.79,10.17-8.84,11.28-3.94.86-6.5-.63-7.38-4.57-.46-2.05-.59-4.19-.68-6.3-.61-14.55-1.17-29.1-1.77-43.65-.05-1.3-.22-2.59-.37-4.34Z"/>
  <path class="cls-2" d="m410.53,355.69c-13.02.59-25.39-.64-37.54-3.23-9.4-2.01-18.98-4.13-27.76-7.87-26.46-11.27-29.52-28.86-16.04-53.69,4.04-7.44,10.52-12.84,17.69-17.33,14.5-9.08,30.44-13.91,47.28-16.14,2.19-.29,3.73-.22,4.1,2.67,3.92,30.41,7.96,60.81,11.95,91.22.17,1.29.19,2.59.31,4.37Z"/>
  <path class="cls-2" d="m417.22,355.52c-4.28-33.19-8.47-65.71-12.66-98.22.49-.29.8-.63,1.13-.65,19.5-.99,38.63.43,56.67,8.81,12.63,5.87,22.56,14.65,24.98,28.82,3.16,18.55.62,32.83-17.38,45.37-12.17,8.49-26.18,11.72-40.5,14.06-3.88.63-7.79,1.16-12.25,1.82Z"/>
  <path class="cls-2" d="m335.47,270.57c-2.38,2.62-4.99,5.57-7.69,8.44-8.35,8.86-16.51,17.92-25.14,26.49-17.77,17.63-52.88,12.89-65.59-8.63-4.34-7.35-4.3-15.16-2.23-23.06,3.51-13.35,10.6-25.03,17.65-36.69,3.39-5.61,7.03-11.07,11.06-17.37.85,6.1,4.56,8.95,8.48,11.41,20.96,13.1,42,26.09,63.46,39.4Z"/>
  <path class="cls-2" d="m463.45,371.15c3.75-3.13,7.21-5.97,10.6-8.88,4.72-4.05,7.31-9.3,6.61-15.42-.69-6.06,3.1-9.59,6.06-14.31,3.15,18.43-5.71,33.08-23.27,38.6Z"/>
  <path class="cls-2" d="m349.01,249.17c11.56-17.27,23.28-34.37,26.08-56.25,4.15,15.18-9.84,39.87-26.08,56.25Z"/>
  <path class="cls-2" d="m270.05,500.91c9.08,4.85,16.46,2.76,24.25-3.5-1.62,7.72-2.91,14.51-4.59,21.19-.21.86-2.42,1.71-3.71,1.72-12.18.13-24.37.08-36.55.07-17.08,0-34.17-.02-51.25-.04-1.81,0-3.62,0-5.43,0-.28-.38-.55-.77-.83-1.15,2.79-3.52,5.32-7.31,8.44-10.51,4.45-4.56,9.3-7.32,16.59-6.79,13.17.96,26.47.25,39.71.24,1.17,0,2.35,0,3.92,0,.52,4.91,1.03,9.64,1.53,14.37.33-.03.66-.06,1-.09.42-10.03.82-20.06,1.26-30.09.32-7.27.61-14.55,1.14-21.81.1-1.43,1.25-2.78,1.91-4.16.39.18.77.36,1.16.55-.54,1.77-1.07,3.55-1.61,5.32,4.21-8.43,13.51-10.83,19.37-17.35-4.38,2.01-8.75,4.02-13.65,6.27,0-1.52.14-2.9-.03-4.24-.57-4.57-.85-9.22-1.97-13.66-2.66-10.59-9.96-16-20.65-16.46-3.92-.17-7.89,1.32-11.86,1.45-7.67.26-15.36.08-23.04.1-.85,0-1.7.18-2.52.96,10.3.62,20.59,1.25,31.3,1.9-1.46,3.08-3.18,4.57-6.44,4.76-8.14.48-16.25,1.36-24.37,2.09,0,.44.01.88.02,1.32,7.04.49,14.09.98,21.95,1.53-7.41,5.4-15.05,6.24-23.05,5.19-.82-.11-1.71-1.54-2.14-2.54-4.85-11.12-5.94-22.75-3.71-34.57.57-2.99,2.13-6.71,4.47-8.31,15.28-10.45,30.91-20.42,46.68-30.71,2.46,2.9,4.91,5.79,7.51,8.85-.54.58-.9,1.12-1.39,1.49-11.78,9-24.15,17.35-35.12,27.25-4.82,4.35-9.2,4.07-14.35,4.05-1.06,0-2.25-.31-3.14.07-1.01.44-1.75,1.49-2.6,2.28.82.64,1.56,1.44,2.48,1.85.66.3,1.56.07,2.36.07,10.33,0,20.67-.31,30.98.12,6.17.26,12.46,1.03,18.39,2.68,16.84,4.67,26.71,15.89,29.3,33.27.84,5.63,1.83,11.27,2.07,16.93.41,9.39.32,18.8.28,28.2,0,1.29-.62,2.96-1.55,3.8-5.86,5.29-12.38,8.65-20.61,6.06-.32-.1-.7-.01-1.92-.01Zm8.74-5.34c6.49.03,11.49-4.58,11.51-10.61.02-6.36-4.85-11.02-11.53-11.04-6.49-.02-11.44,4.51-11.59,10.61-.15,6.08,5.04,11.01,11.62,11.04Zm-38.06,21.76c.68-6.24.63-6.29-5.1-6.29-5.55,0-11.09,0-16.64,0-2.98,0-5.96,0-8.98,0v6.29h30.71Z"/>
  <path class="cls-2" d="m190.48,524.56c1.34-.07,2.62-.2,3.91-.2,34.53-.04,69.06-.08,103.6-.1,1.06,0,2.17-.13,3.15.16.53.16,1.14,1.08,1.14,1.66,0,.57-.61,1.34-1.16,1.67-.5.29-1.29.11-1.95.12-35.06.27-70.12.52-105.18.84-2.92.03-4.66-.46-3.51-4.14Z"/>
  <path class="cls-2" d="m231.96,403.55c1.42-1.34,2.39-2.4,3.51-3.28,9.77-7.66,19.58-15.28,29.35-22.95,1.55-1.21,2.89-2.1,3.87.86-5.26,4.26-10.62,8.52-15.9,12.88-4.38,3.62-8.7,7.3-12.96,11.05-2.82,2.48-2.88,2.59-7.87,1.43Z"/>
  <path class="cls-2" d="m499.85,478.22c5.67-22.23,11.35-44.47,17.02-66.7-.35-.1-.71-.2-1.06-.3-1.22,4.06-2.51,8.1-3.64,12.18-4.83,17.46-9.57,34.95-14.48,52.39-.44,1.58-1.8,2.91-2.47,3.95,0,2.15.39,4.34-.07,6.33-2.07,9-4.37,17.95-6.59,26.92.35.1.7.2,1.06.29,2.95-10.22,5.91-20.44,8.86-30.66.4-.12.8-.24,1.2-.36.36,1.17,1.19,2.43.98,3.49-1.06,5.37-2.4,10.68-3.64,16.01.31.08.63.16.94.24,1.48-5.02,3.06-10.01,4.39-15.07.66-2.52,1.86-3.19,4.47-3,9.63.71,19.28,1.27,28.93,1.56,2.67.08,3.37,1.28,3.86,3.4,1.88,8.12,3.74,16.23,5.78,24.31.61,2.41,1.36,4.97,2.78,6.92.97,1.32,3.48,2.63,4.83,2.25,1.32-.37,2.47-2.78,2.89-4.49.41-1.69-.19-3.63-.36-5.56,1.83-.37,3.54-.72,5.91-1.2-2.75-1.94-7.22.59-7.37-4.4,1.7-.41,3.3-.8,4.89-1.19,0-.29-.01-.58-.02-.87-1.81-.09-3.62-.17-5.34-.25-.47-1.51-.9-2.89-1.36-4.34.6-.53,1.26-1.11,1.74-1.53-1.49-1.38-2.91-2.68-5.03-4.64,2.96-.38,4.61-.59,6.26-.8-4.82-.2-7.8-2.06-7.37-7.82,3.35-.4,6.82-1.02,10.3-1.09.8-.02,2.06,1.75,2.37,2.89,1.74,6.29,3.24,12.64,5.55,18.81-.82-3.95-1.64-7.9-2.46-11.85.21-.06.42-.11.64-.17,1.24,4.3,2.6,8.57,3.68,12.92,1.62,6.53,3.36,13.06,4.45,19.69.75,4.54-.89,5.97-5.6,5.98-24.64.02-49.27.04-73.91-.06-8.23-.03-12.19-5.42-10.07-13.58,9.18-35.33,18.59-70.61,27.51-106,1.52-6.03,1.21-12.55,1.55-18.85.21-3.95.04-7.92.76-11.99.7,4.02,1.39,8.04,2.18,12.58.59-.81.95-1.32,1.86-2.58,6.77,28.84,13.41,57.12,20.15,85.86h-31.37c4.04-17.25,8.09-34.54,12.14-51.82-.28-.07-.57-.15-.85-.22-1.87,6.84-3.75,13.69-5.61,20.53-2.7,9.95-5.35,19.93-8.15,29.85-.3,1.07-1.52,1.88-2.31,2.8-.28-.25-.56-.49-.84-.74Zm60.68,50.91l-.13-.94h-62v.94h62.13Zm-21.18-25c0-.26,0-.52,0-.77h-9.09c0,.26,0,.52,0,.77h9.09Z"/>
  <path class="cls-2" d="m528.86,408c3.28-.09,6.62-.52,9.83-.09,1.24.17,2.82,2.13,3.21,3.56,2.61,9.55,4.99,19.16,7.36,28.78,2.75,11.15,5.41,22.33,8.1,33.49.24,1,.45,2,.88,3.9-4.03,0-7.68.23-11.27-.15-.99-.11-2.3-1.94-2.6-3.18-3.52-14.77-6.88-29.58-10.29-44.37-1.69-7.33-3.42-14.66-5.13-21.99l-.1.05Z"/>
  <path class="cls-2" d="m528.96,407.95c-2.4-10.26-4.8-20.52-7.28-31.12h26.01c0,8.01.12,15.89-.17,23.75-.03.81-2.43,2.01-3.82,2.13-.91.08-2.56-1.28-2.83-2.28-.77-2.84-1-5.83-2.17-8.8-.3,2.43-.66,4.85-.88,7.28-.34,3.85-2.05,6.4-6.07,7.24-1.04.22-1.92,1.21-2.89,1.85-.02,0,.09-.04.09-.04Z"/>
  <path class="cls-2" d="m540.73,478.17c-.68-1.21-1.7-2.35-2.01-3.65-6.65-28.31-13.23-56.64-19.79-84.97-.94-4.04-1.72-8.13-2.75-13.06,1.53.82,2.44,1.01,2.53,1.4,7.88,33.12,15.7,66.26,23.53,99.39-.5.3-1,.59-1.5.89Z"/>
  <path class="cls-2" d="m549,366.73h-22.53c0,.48,0,.95,0,1.43h15.97c.06.4.11.8.17,1.2-1.77.35-3.54.93-5.32,1.02-7.26.38-14.53.63-21.79.86-1.31.04-2.72,0-3.9-.47-.96-.37-2.34-1.47-2.3-2.17.07-1.07,1.01-2.35,1.95-3.01.89-.62,2.26-.76,3.42-.76,10.71-.06,21.43-.06,32.14-.03.72,0,1.44.33,2.16.51.01.48.02.95.03,1.43Z"/>
  <path class="cls-2" d="m542.68,484.74c.8.82,2.05,1.51,2.32,2.47,2.67,9.69,5.23,19.4,7.67,29.15.33,1.31-.23,2.84-1.09,4.36-3.51-5.33-4.13-11.47-5.7-17.29-1.58-5.85-2.93-11.77-4.37-17.66.39-.34.78-.68,1.17-1.03Z"/>
  <path class="cls-2" d="m511.22,343.24c1.27,5.64,2.53,11.28,3.88,17.27-1.01.06-2.07.21-2.1.1-1.42-5.59-2.76-11.2-4.1-16.81.77-.19,1.55-.37,2.32-.56Z"/>
  <path class="cls-2" d="m336.1,67.19c3.08.65,5.43.95,7.59,1.75.5.19.84,2.81.44,3.07-1.92,1.26-4.13,2.1-6.9,3.4-.41-2.98-.67-4.86-1.13-8.22Z"/>
  <path class="cls-2" d="m367.6,73.97c-2.22.12-3.86.21-6.17.34.84-2.51,1.52-4.51,2.55-7.58,1.43,2.87,2.41,4.81,3.62,7.24Z"/>
  <path class="cls-2" d="m271.73,91.55c-2.13.72-3.55,1.21-5.34,1.82v-7.82c2.05,2.3,3.47,3.9,5.34,6Z"/>
  <path class="cls-2" d="m619.51,162.79c-1,1.93-2,3.86-3.2,6.18-1.49-1.32-2.72-2.4-4.47-3.95,2.77-1.13,4.9-1.99,7.03-2.86.21.21.43.43.64.64Z"/>
  <path class="cls-2" d="m63.43,339.73c-2.22-1.32-4-2.37-6.55-3.89,2.84-.58,4.68-.96,7.04-1.45-.17,1.79-.3,3.26-.49,5.33Z"/>
  <path class="cls-2" d="m288.22,86.18c2.49-.63,4.25-1.38,6.03-1.42,1.17-.03,2.36.96,3.55,1.49-.74.95-1.28,2.29-2.25,2.76-1.73.84-3.71,1.16-5.94,1.8-.47-1.58-.87-2.88-1.39-4.63Z"/>
  <path class="cls-2" d="m287.44,82.07c-.54-1.24-.98-2.26-1.65-3.81,2.04-.67,3.8-1.48,5.64-1.75.83-.12,1.81.82,2.73,1.28-.56.89-.92,2.13-1.73,2.58-1.44.8-3.15,1.11-4.99,1.7Z"/>
  <path class="cls-2" d="m184.99,140.9c-2.41-3.23-4.82-6.46-8.05-10.79,3.74-1.01,6.82-2.8,9.38-2.23,2.04.45,4.89,3.85,4.78,5.8-.15,2.6-2.81,5.06-4.39,7.58-.57-.12-1.14-.23-1.7-.35Z"/>
  <path class="cls-2" d="m551.66,123.53c2.22-3.44,4.35-6.74,6.61-10.24,3.51,1.43,6.77,3.28,6.58,7.11-.11,2.14-2.05,4.97-3.98,6.07-3.49,1.99-6.45-.35-9.2-2.94Z"/>
  <path class="cls-2" d="m657.89,228.95c3.54-1.88,6.48-3.61,9.58-4.97.78-.34,2.51.21,3.08.92,2.46,3.09,2.04,6.96-.72,9.13-3.08,2.42-7.27,1.89-9.73-1.33-.78-1.01-1.31-2.21-2.21-3.75Z"/>
  <path class="cls-2" d="m147.86,567.47c-2.53,2.17-4.97,4.56-7.75,6.46-.76.52-2.87-.04-3.76-.8-2.28-1.94-3.24-4.5-1.45-7.34,3.35-5.32,8.79-4.73,12.96,1.69Z"/>
  <path class="cls-2" d="m706.76,410.38c-.36,3.56-.18,7.22-3.7,8.1-2.34.59-5.63.05-7.63-1.28-2.8-1.87-2.32-5.25-1.16-8.68,4.08.61,8.07,1.2,12.5,1.85Z"/>
  <path class="cls-2" d="m322.22,77.69c.08,3.8-2.39,6.55-5.87,6.52-3.59-.02-6.38-2.84-6.52-6.6-.14-3.79,2.15-6.22,5.98-6.32,3.88-.1,6.33,2.34,6.41,6.4Z"/>
  <path class="cls-2" d="m416.27,72.3c0,3.78-2.79,6.91-6.22,6.95-3.43.04-6.13-2.73-6.22-6.41-.1-3.83,2.6-6.79,6.21-6.84,3.58-.05,6.22,2.63,6.23,6.31Z"/>
  <path class="cls-2" d="m446.09,79.47c-1.95-2.22-3.73-3.39-4.08-4.89-.37-1.58-.39-4.23,2.77-3.97,2.47.2,5.13.7,5.02,3.7-.05,1.42-1.92,2.78-3.72,5.16Z"/>
  <path class="cls-2" d="m56.01,410.81c-1.09-3.34-1.98-6.7,1.04-8.57,2.06-1.27,5.34-1.71,7.69-1.09,3.63.96,3.81,4.53,3.71,8.37-4.06.42-8.05.83-12.44,1.28Z"/>
  <path class="cls-2" d="m88.49,246.01c-2.24-2.05-3.68-3.37-5.12-4.69,1.44-1.28,2.88-2.55,4.32-3.83,1.05,1.21,2.73,2.31,2.98,3.67.22,1.21-1.14,2.7-2.17,4.85Z"/>
  <path class="cls-2" d="m689.93,474.73c-.08,3.23-2.82,5.46-6.53,5.31-3.77-.15-6.9-2.95-6.94-6.21-.04-3.2,2.82-5.75,6.3-5.62,3.8.14,7.25,3.27,7.17,6.51Z"/>
  <path class="cls-2" d="m115.73,539.62c1.85,2.24,3.1,3.76,4.36,5.29-1.6,1.18-3.19,2.37-4.79,3.55-1.08-1.54-2.69-2.97-3.02-4.66-.18-.93,1.8-2.28,3.45-4.19Z"/>
  <path class="cls-2" d="m701.76,364.73h8.48c-.66,2.26-.86,4.34-1.9,5.85-.48.69-3.3.84-3.84.21-1.22-1.44-1.67-3.52-2.74-6.06Z"/>
  <path class="cls-2" d="m73.72,466.29c-3.69-.05-6.37-2.52-6.24-5.76.13-3.42,3.56-6.12,7.6-5.98,3.34.11,5.8,2.57,5.83,5.81.03,3.23-3.31,5.98-7.19,5.93Z"/>
  <path class="cls-2" d="m117.74,202.36c-1.54-2.42-2.63-4.14-4.41-6.92,3.07.89,4.99,1.44,7.55,2.18-1.07,1.62-1.89,2.85-3.15,4.74Z"/>
  <path class="cls-2" d="m77.29,261c1.89.13,3.79.27,6.26.44-.53,1.67-.96,3.03-1.59,5.03-1.98-1.73-3.54-3.1-5.1-4.47.14-.33.29-.67.43-1Z"/>
  <path class="cls-2" d="m706.24,390.63c-1.9.58-3.8,1.17-6.04,1.86v-5.36c2.28.97,4.19,1.77,6.1,2.58-.02.31-.04.62-.05.93Z"/>
  <path class="cls-2" d="m67.2,310.16c-3.08-.82-5.05-1.34-7.87-2.1,1.07-2.14,1.64-4.15,2.93-5.47.59-.6,3.55-.19,3.77.4.76,1.99.77,4.26,1.17,7.17Z"/>
  <path class="cls-1" d="m289.32,605.69c6.22.28,11.65.36,17.05.8,4.92.4,8.44,3.62,9.08,8.5.39,2.96.33,6.09-.19,9.02-.82,4.6-4.01,7.61-8.4,7.65-5.9.05-11.81-.52-17.54-.82v-25.15Z"/>
  <path class="cls-1" d="m214.47,601.45c4.78.39,9.54.54,14.22,1.23,5.92.87,10.44,4.2,12.51,9.81,3.31,8.97,3.38,18.17-.3,27.08-2.4,5.83-6.59,7.76-12.77,6.68-14.64-2.55-15.11-3.03-14.91-17.62.12-8.59.47-17.18.73-25.77,0-.24.17-.48.51-1.41Z"/>
  <path class="cls-1" d="m278.79,495.57c-6.58-.04-11.77-4.97-11.62-11.04.15-6.1,5.1-10.63,11.59-10.61,6.69.02,11.55,4.68,11.53,11.04-.02,6.03-5.02,10.65-11.51,10.61Z"/>
  <path class="cls-1" d="m240.74,517.33h-30.71v-6.29c3.02,0,6,0,8.98,0,5.55,0,11.09,0,16.64,0,5.72,0,5.77.05,5.1,6.29Z"/>
  <path class="cls-1" d="m560.53,529.13h-62.13v-.94h62l.13.94Z"/>
  <path class="cls-1" d="m539.35,504.13h-9.09c0-.26,0-.52,0-.77h9.09c0,.26,0,.52,0,.77Z"/>
</svg>